<svg width="114" height="16" viewBox="0 0 114 16" fill="none" xmlns="http://www.w3.org/2000/svg">
<path d="M7.60156 10.4453V12H1.5625V10.4453H7.60156ZM2.11719 0.625V12H0.15625V0.625H2.11719ZM6.8125 5.375V6.90625H1.5625V5.375H6.8125ZM7.5625 0.625V2.1875H1.5625V0.625H7.5625ZM10.4531 3.54688L12.0625 6.35156L13.7031 3.54688H15.7734L13.2109 7.69531L15.875 12H13.8047L12.0859 9.07812L10.3672 12H8.28906L10.9453 7.69531L8.39062 3.54688H10.4531ZM18.9531 5.17188V15.25H17.0703V3.54688H18.8047L18.9531 5.17188ZM24.4609 7.69531V7.85938C24.4609 8.47396 24.388 9.04427 24.2422 9.57031C24.1016 10.0911 23.8906 10.5469 23.6094 10.9375C23.3333 11.3229 22.9922 11.6224 22.5859 11.8359C22.1797 12.0495 21.7109 12.1562 21.1797 12.1562C20.6536 12.1562 20.1927 12.0599 19.7969 11.8672C19.4062 11.6693 19.0755 11.3906 18.8047 11.0312C18.5339 10.6719 18.3151 10.25 18.1484 9.76562C17.987 9.27604 17.8724 8.73958 17.8047 8.15625V7.52344C17.8724 6.90365 17.987 6.34115 18.1484 5.83594C18.3151 5.33073 18.5339 4.89583 18.8047 4.53125C19.0755 4.16667 19.4062 3.88542 19.7969 3.6875C20.1875 3.48958 20.6432 3.39062 21.1641 3.39062C21.6953 3.39062 22.1667 3.49479 22.5781 3.70312C22.9896 3.90625 23.3359 4.19792 23.6172 4.57812C23.8984 4.95312 24.1094 5.40625 24.25 5.9375C24.3906 6.46354 24.4609 7.04948 24.4609 7.69531ZM22.5781 7.85938V7.69531C22.5781 7.30469 22.5417 6.94271 22.4688 6.60938C22.3958 6.27083 22.2812 5.97396 22.125 5.71875C21.9688 5.46354 21.7682 5.26562 21.5234 5.125C21.2839 4.97917 20.9948 4.90625 20.6562 4.90625C20.3229 4.90625 20.0365 4.96354 19.7969 5.07812C19.5573 5.1875 19.3568 5.34115 19.1953 5.53906C19.0339 5.73698 18.9089 5.96875 18.8203 6.23438C18.7318 6.49479 18.6693 6.77865 18.6328 7.08594V8.60156C18.6953 8.97656 18.8021 9.32031 18.9531 9.63281C19.1042 9.94531 19.3177 10.1953 19.5938 10.3828C19.875 10.5651 20.2344 10.6562 20.6719 10.6562C21.0104 10.6562 21.2995 10.5833 21.5391 10.4375C21.7786 10.2917 21.974 10.0911 22.125 9.83594C22.2812 9.57552 22.3958 9.27604 22.4688 8.9375C22.5417 8.59896 22.5781 8.23958 22.5781 7.85938ZM29.7891 12.1562C29.1641 12.1562 28.599 12.0547 28.0938 11.8516C27.5938 11.6432 27.1667 11.3542 26.8125 10.9844C26.4635 10.6146 26.1953 10.1797 26.0078 9.67969C25.8203 9.17969 25.7266 8.64062 25.7266 8.0625V7.75C25.7266 7.08854 25.8229 6.48958 26.0156 5.95312C26.2083 5.41667 26.4766 4.95833 26.8203 4.57812C27.1641 4.19271 27.5703 3.89844 28.0391 3.69531C28.5078 3.49219 29.0156 3.39062 29.5625 3.39062C30.1667 3.39062 30.6953 3.49219 31.1484 3.69531C31.6016 3.89844 31.9766 4.1849 32.2734 4.55469C32.5755 4.91927 32.7995 5.35417 32.9453 5.85938C33.0964 6.36458 33.1719 6.92188 33.1719 7.53125V8.33594H26.6406V6.98438H31.3125V6.83594C31.3021 6.4974 31.2344 6.17969 31.1094 5.88281C30.9896 5.58594 30.8047 5.34635 30.5547 5.16406C30.3047 4.98177 29.9714 4.89062 29.5547 4.89062C29.2422 4.89062 28.9635 4.95833 28.7188 5.09375C28.4792 5.22396 28.2786 5.41406 28.1172 5.66406C27.9557 5.91406 27.8307 6.21615 27.7422 6.57031C27.6589 6.91927 27.6172 7.3125 27.6172 7.75V8.0625C27.6172 8.43229 27.6667 8.77604 27.7656 9.09375C27.8698 9.40625 28.0208 9.67969 28.2188 9.91406C28.4167 10.1484 28.6562 10.3333 28.9375 10.4688C29.2188 10.599 29.5391 10.6641 29.8984 10.6641C30.3516 10.6641 30.7552 10.5729 31.1094 10.3906C31.4635 10.2083 31.7708 9.95052 32.0312 9.61719L33.0234 10.5781C32.8411 10.8438 32.6042 11.099 32.3125 11.3438C32.0208 11.5833 31.6641 11.7786 31.2422 11.9297C30.8255 12.0807 30.3411 12.1562 29.7891 12.1562ZM36.5078 5.35156V12H34.625V3.54688H36.3984L36.5078 5.35156ZM36.1719 7.46094L35.5625 7.45312C35.5677 6.85417 35.651 6.30469 35.8125 5.80469C35.9792 5.30469 36.2083 4.875 36.5 4.51562C36.7969 4.15625 37.151 3.88021 37.5625 3.6875C37.974 3.48958 38.4323 3.39062 38.9375 3.39062C39.3438 3.39062 39.7109 3.44792 40.0391 3.5625C40.3724 3.67188 40.6562 3.85156 40.8906 4.10156C41.1302 4.35156 41.3125 4.67708 41.4375 5.07812C41.5625 5.47396 41.625 5.96094 41.625 6.53906V12H39.7344V6.53125C39.7344 6.125 39.6745 5.80469 39.5547 5.57031C39.4401 5.33073 39.2708 5.16146 39.0469 5.0625C38.8281 4.95833 38.5547 4.90625 38.2266 4.90625C37.9036 4.90625 37.6146 4.97396 37.3594 5.10938C37.1042 5.24479 36.888 5.42969 36.7109 5.66406C36.5391 5.89844 36.4062 6.16927 36.3125 6.47656C36.2188 6.78385 36.1719 7.11198 36.1719 7.46094ZM48.2891 9.71094C48.2891 9.52344 48.2422 9.35417 48.1484 9.20312C48.0547 9.04688 47.875 8.90625 47.6094 8.78125C47.349 8.65625 46.9635 8.54167 46.4531 8.4375C46.0052 8.33854 45.5938 8.22135 45.2188 8.08594C44.849 7.94531 44.5312 7.77604 44.2656 7.57812C44 7.38021 43.7943 7.14583 43.6484 6.875C43.5026 6.60417 43.4297 6.29167 43.4297 5.9375C43.4297 5.59375 43.5052 5.26823 43.6562 4.96094C43.8073 4.65365 44.0234 4.38281 44.3047 4.14844C44.5859 3.91406 44.9271 3.72917 45.3281 3.59375C45.7344 3.45833 46.1875 3.39062 46.6875 3.39062C47.3958 3.39062 48.0026 3.51042 48.5078 3.75C49.0182 3.98438 49.4089 4.30469 49.6797 4.71094C49.9505 5.11198 50.0859 5.5651 50.0859 6.07031H48.2031C48.2031 5.84635 48.1458 5.63802 48.0312 5.44531C47.9219 5.2474 47.7552 5.08854 47.5312 4.96875C47.3073 4.84375 47.026 4.78125 46.6875 4.78125C46.3646 4.78125 46.0964 4.83333 45.8828 4.9375C45.6745 5.03646 45.5182 5.16667 45.4141 5.32812C45.3151 5.48958 45.2656 5.66667 45.2656 5.85938C45.2656 6 45.2917 6.1276 45.3438 6.24219C45.401 6.35156 45.4948 6.45312 45.625 6.54688C45.7552 6.63542 45.9323 6.71875 46.1562 6.79688C46.3854 6.875 46.6719 6.95052 47.0156 7.02344C47.6615 7.15885 48.2161 7.33333 48.6797 7.54688C49.1484 7.75521 49.5078 8.02604 49.7578 8.35938C50.0078 8.6875 50.1328 9.10417 50.1328 9.60938C50.1328 9.98438 50.0521 10.3281 49.8906 10.6406C49.7344 10.9479 49.5052 11.2161 49.2031 11.4453C48.901 11.6693 48.5391 11.8438 48.1172 11.9688C47.7005 12.0938 47.2318 12.1562 46.7109 12.1562C45.9453 12.1562 45.2969 12.0208 44.7656 11.75C44.2344 11.474 43.8307 11.1224 43.5547 10.6953C43.2839 10.263 43.1484 9.8151 43.1484 9.35156H44.9688C44.9896 9.70052 45.0859 9.97917 45.2578 10.1875C45.4349 10.3906 45.6536 10.5391 45.9141 10.6328C46.1797 10.7214 46.4531 10.7656 46.7344 10.7656C47.0729 10.7656 47.3568 10.7214 47.5859 10.6328C47.8151 10.5391 47.9896 10.4141 48.1094 10.2578C48.2292 10.0964 48.2891 9.91406 48.2891 9.71094ZM55.5078 12.1562C54.8828 12.1562 54.3177 12.0547 53.8125 11.8516C53.3125 11.6432 52.8854 11.3542 52.5312 10.9844C52.1823 10.6146 51.9141 10.1797 51.7266 9.67969C51.5391 9.17969 51.4453 8.64062 51.4453 8.0625V7.75C51.4453 7.08854 51.5417 6.48958 51.7344 5.95312C51.9271 5.41667 52.1953 4.95833 52.5391 4.57812C52.8828 4.19271 53.2891 3.89844 53.7578 3.69531C54.2266 3.49219 54.7344 3.39062 55.2812 3.39062C55.8854 3.39062 56.4141 3.49219 56.8672 3.69531C57.3203 3.89844 57.6953 4.1849 57.9922 4.55469C58.2943 4.91927 58.5182 5.35417 58.6641 5.85938C58.8151 6.36458 58.8906 6.92188 58.8906 7.53125V8.33594H52.3594V6.98438H57.0312V6.83594C57.0208 6.4974 56.9531 6.17969 56.8281 5.88281C56.7083 5.58594 56.5234 5.34635 56.2734 5.16406C56.0234 4.98177 55.6901 4.89062 55.2734 4.89062C54.9609 4.89062 54.6823 4.95833 54.4375 5.09375C54.1979 5.22396 53.9974 5.41406 53.8359 5.66406C53.6745 5.91406 53.5495 6.21615 53.4609 6.57031C53.3776 6.91927 53.3359 7.3125 53.3359 7.75V8.0625C53.3359 8.43229 53.3854 8.77604 53.4844 9.09375C53.5885 9.40625 53.7396 9.67969 53.9375 9.91406C54.1354 10.1484 54.375 10.3333 54.6562 10.4688C54.9375 10.599 55.2578 10.6641 55.6172 10.6641C56.0703 10.6641 56.474 10.5729 56.8281 10.3906C57.1823 10.2083 57.4896 9.95052 57.75 9.61719L58.7422 10.5781C58.5599 10.8438 58.3229 11.099 58.0312 11.3438C57.7396 11.5833 57.3828 11.7786 56.9609 11.9297C56.5443 12.0807 56.0599 12.1562 55.5078 12.1562Z" fill="#157AFE"/>
<path d="M65.2266 0.625V12H63.2812V0.625H65.2266ZM68.7969 0.625V2.1875H59.7422V0.625H68.7969ZM71.4375 5.15625V12H69.5547V3.54688H71.3516L71.4375 5.15625ZM74.0234 3.49219L74.0078 5.24219C73.8932 5.22135 73.7682 5.20573 73.6328 5.19531C73.5026 5.1849 73.3724 5.17969 73.2422 5.17969C72.9193 5.17969 72.6354 5.22656 72.3906 5.32031C72.1458 5.40885 71.9401 5.53906 71.7734 5.71094C71.612 5.8776 71.487 6.08073 71.3984 6.32031C71.3099 6.5599 71.2578 6.82812 71.2422 7.125L70.8125 7.15625C70.8125 6.625 70.8646 6.13281 70.9688 5.67969C71.0729 5.22656 71.2292 4.82812 71.4375 4.48438C71.651 4.14062 71.9167 3.8724 72.2344 3.67969C72.5573 3.48698 72.9297 3.39062 73.3516 3.39062C73.4661 3.39062 73.5885 3.40104 73.7188 3.42188C73.8542 3.44271 73.9557 3.46615 74.0234 3.49219ZM79.6875 10.3047V6.27344C79.6875 5.97135 79.6328 5.71094 79.5234 5.49219C79.4141 5.27344 79.2474 5.10417 79.0234 4.98438C78.8047 4.86458 78.5286 4.80469 78.1953 4.80469C77.888 4.80469 77.6224 4.85677 77.3984 4.96094C77.1745 5.0651 77 5.20573 76.875 5.38281C76.75 5.5599 76.6875 5.76042 76.6875 5.98438H74.8125C74.8125 5.65104 74.8932 5.32812 75.0547 5.01562C75.2161 4.70312 75.4505 4.42448 75.7578 4.17969C76.0651 3.9349 76.4323 3.74219 76.8594 3.60156C77.2865 3.46094 77.7656 3.39062 78.2969 3.39062C78.9323 3.39062 79.4948 3.4974 79.9844 3.71094C80.4792 3.92448 80.8672 4.2474 81.1484 4.67969C81.4349 5.10677 81.5781 5.64323 81.5781 6.28906V10.0469C81.5781 10.4323 81.6042 10.7786 81.6562 11.0859C81.7135 11.388 81.7943 11.651 81.8984 11.875V12H79.9688C79.8802 11.7969 79.8099 11.5391 79.7578 11.2266C79.7109 10.9089 79.6875 10.6016 79.6875 10.3047ZM79.9609 6.85938L79.9766 8.02344H78.625C78.276 8.02344 77.9688 8.05729 77.7031 8.125C77.4375 8.1875 77.2161 8.28125 77.0391 8.40625C76.862 8.53125 76.7292 8.68229 76.6406 8.85938C76.5521 9.03646 76.5078 9.23698 76.5078 9.46094C76.5078 9.6849 76.5599 9.89062 76.6641 10.0781C76.7682 10.2604 76.9193 10.4036 77.1172 10.5078C77.3203 10.612 77.5651 10.6641 77.8516 10.6641C78.237 10.6641 78.5729 10.5859 78.8594 10.4297C79.151 10.2682 79.3802 10.0729 79.5469 9.84375C79.7135 9.60938 79.8021 9.38802 79.8125 9.17969L80.4219 10.0156C80.3594 10.2292 80.2526 10.4583 80.1016 10.7031C79.9505 10.9479 79.7526 11.1823 79.5078 11.4062C79.2682 11.625 78.9792 11.8047 78.6406 11.9453C78.3073 12.0859 77.9219 12.1562 77.4844 12.1562C76.9323 12.1562 76.4401 12.0469 76.0078 11.8281C75.5755 11.6042 75.237 11.3047 74.9922 10.9297C74.7474 10.5495 74.625 10.1198 74.625 9.64062C74.625 9.19271 74.7083 8.79688 74.875 8.45312C75.0469 8.10417 75.2969 7.8125 75.625 7.57812C75.9583 7.34375 76.3646 7.16667 76.8438 7.04688C77.3229 6.92188 77.8698 6.85938 78.4844 6.85938H79.9609ZM87 10.6562C87.3073 10.6562 87.5833 10.5964 87.8281 10.4766C88.0781 10.3516 88.2786 10.1797 88.4297 9.96094C88.5859 9.74219 88.6719 9.48958 88.6875 9.20312H90.4609C90.4505 9.75 90.2891 10.2474 89.9766 10.6953C89.6641 11.1432 89.25 11.5 88.7344 11.7656C88.2188 12.026 87.6484 12.1562 87.0234 12.1562C86.3776 12.1562 85.8151 12.0469 85.3359 11.8281C84.8568 11.6042 84.4583 11.2969 84.1406 10.9062C83.8229 10.5156 83.5833 10.0651 83.4219 9.55469C83.2656 9.04427 83.1875 8.4974 83.1875 7.91406V7.64062C83.1875 7.05729 83.2656 6.51042 83.4219 6C83.5833 5.48438 83.8229 5.03125 84.1406 4.64062C84.4583 4.25 84.8568 3.94531 85.3359 3.72656C85.8151 3.5026 86.375 3.39062 87.0156 3.39062C87.6927 3.39062 88.2865 3.52604 88.7969 3.79688C89.3073 4.0625 89.7083 4.4349 90 4.91406C90.2969 5.38802 90.4505 5.9401 90.4609 6.57031H88.6875C88.6719 6.25781 88.5938 5.97656 88.4531 5.72656C88.3177 5.47135 88.125 5.26823 87.875 5.11719C87.6302 4.96615 87.3359 4.89062 86.9922 4.89062C86.612 4.89062 86.2969 4.96875 86.0469 5.125C85.7969 5.27604 85.6016 5.48438 85.4609 5.75C85.3203 6.01042 85.2188 6.30469 85.1562 6.63281C85.099 6.95573 85.0703 7.29167 85.0703 7.64062V7.91406C85.0703 8.26302 85.099 8.60156 85.1562 8.92969C85.2135 9.25781 85.3125 9.55208 85.4531 9.8125C85.599 10.0677 85.7969 10.2734 86.0469 10.4297C86.2969 10.5807 86.6146 10.6562 87 10.6562ZM93.8047 0V12H91.9141V0H93.8047ZM99.0547 3.54688L95.375 7.625L93.3594 9.6875L92.8672 8.09375L94.3906 6.21094L96.7812 3.54688H99.0547ZM97.1875 12L94.4453 8.03125L95.6328 6.71094L99.3672 12H97.1875ZM103.82 12.1562C103.195 12.1562 102.63 12.0547 102.125 11.8516C101.625 11.6432 101.198 11.3542 100.844 10.9844C100.495 10.6146 100.227 10.1797 100.039 9.67969C99.8516 9.17969 99.7578 8.64062 99.7578 8.0625V7.75C99.7578 7.08854 99.8542 6.48958 100.047 5.95312C100.24 5.41667 100.508 4.95833 100.852 4.57812C101.195 4.19271 101.602 3.89844 102.07 3.69531C102.539 3.49219 103.047 3.39062 103.594 3.39062C104.198 3.39062 104.727 3.49219 105.18 3.69531C105.633 3.89844 106.008 4.1849 106.305 4.55469C106.607 4.91927 106.831 5.35417 106.977 5.85938C107.128 6.36458 107.203 6.92188 107.203 7.53125V8.33594H100.672V6.98438H105.344V6.83594C105.333 6.4974 105.266 6.17969 105.141 5.88281C105.021 5.58594 104.836 5.34635 104.586 5.16406C104.336 4.98177 104.003 4.89062 103.586 4.89062C103.273 4.89062 102.995 4.95833 102.75 5.09375C102.51 5.22396 102.31 5.41406 102.148 5.66406C101.987 5.91406 101.862 6.21615 101.773 6.57031C101.69 6.91927 101.648 7.3125 101.648 7.75V8.0625C101.648 8.43229 101.698 8.77604 101.797 9.09375C101.901 9.40625 102.052 9.67969 102.25 9.91406C102.448 10.1484 102.688 10.3333 102.969 10.4688C103.25 10.599 103.57 10.6641 103.93 10.6641C104.383 10.6641 104.786 10.5729 105.141 10.3906C105.495 10.2083 105.802 9.95052 106.062 9.61719L107.055 10.5781C106.872 10.8438 106.635 11.099 106.344 11.3438C106.052 11.5833 105.695 11.7786 105.273 11.9297C104.857 12.0807 104.372 12.1562 103.82 12.1562ZM110.562 5.15625V12H108.68V3.54688H110.477L110.562 5.15625ZM113.148 3.49219L113.133 5.24219C113.018 5.22135 112.893 5.20573 112.758 5.19531C112.628 5.1849 112.497 5.17969 112.367 5.17969C112.044 5.17969 111.76 5.22656 111.516 5.32031C111.271 5.40885 111.065 5.53906 110.898 5.71094C110.737 5.8776 110.612 6.08073 110.523 6.32031C110.435 6.5599 110.383 6.82812 110.367 7.125L109.938 7.15625C109.938 6.625 109.99 6.13281 110.094 5.67969C110.198 5.22656 110.354 4.82812 110.562 4.48438C110.776 4.14062 111.042 3.8724 111.359 3.67969C111.682 3.48698 112.055 3.39062 112.477 3.39062C112.591 3.39062 112.714 3.40104 112.844 3.42188C112.979 3.44271 113.081 3.46615 113.148 3.49219Z" fill="#111111"/>
</svg>
