<svg width="604" height="454" viewBox="0 0 604 454" fill="none" xmlns="http://www.w3.org/2000/svg">
<g clip-path="url(#clip0_10_1500)">
<path d="M34.2177 105.281L18.5497 120.938L33.1674 135.545L48.8354 119.888L34.2177 105.281Z" fill="#E1E6FB"/>
<path d="M51.4527 123.923L35.7847 139.58L50.4023 154.187L66.0704 138.53L51.4527 123.923Z" fill="#E1E6FB"/>
<path d="M55.1698 86.8088L39.5018 102.466L54.1194 117.074L69.7875 101.416L55.1698 86.8088Z" fill="#E1E6FB"/>
<path d="M550.408 353.929L534.74 369.586L549.357 384.193L565.025 368.536L550.408 353.929Z" fill="#E1E6FB"/>
<path d="M567.651 372.567L551.983 388.224L566.601 402.832L582.269 387.175L567.651 372.567Z" fill="#E1E6FB"/>
<path d="M549.08 391.124L533.412 406.781L548.03 421.388L563.698 405.731L549.08 391.124Z" fill="#E1E6FB"/>
<path d="M305.528 34.1472H154.506V112.08H305.528V34.1472Z" fill="#E1E6FB"/>
<path d="M121.083 326.086H64.1401V452.263H121.083V326.086Z" fill="#E1E6FB"/>
<path d="M91.3736 337.219C91.3736 337.219 41.8581 256.812 39.3823 235.783C36.9066 214.753 34.4308 207.331 34.4308 207.331C34.4308 207.331 49.2854 204.857 54.237 215.99C59.1885 227.124 74.0432 213.516 78.9947 243.205C78.9947 243.205 80.2326 258.049 91.3736 253.101C102.515 248.153 91.3736 337.219 91.3736 337.219Z" fill="#E1E6FB"/>
<path d="M97.563 349.59C97.563 349.59 62.1595 284.027 50.5233 258.049C41.8581 238.752 34.4308 207.331 34.4308 207.331C34.4308 207.331 19.4524 212.774 20.814 224.65C22.0519 235.783 10.911 239.494 13.3867 253.101C16.1101 267.822 37.4017 270.543 24.5277 284.027C16.729 292.191 22.5471 306.046 28.2414 314.953C31.8312 320.643 49.7806 325.839 45.5718 323.612C35.9163 318.664 97.563 349.59 97.563 349.59Z" fill="#BAC5F4"/>
<path d="M75.1382 294.695C76.3803 294.124 71.361 280.58 63.9274 264.444C56.4937 248.308 49.4607 235.691 48.2186 236.262C46.9765 236.834 51.9958 250.378 59.4294 266.513C66.863 282.649 73.8961 295.267 75.1382 294.695Z" fill="#BAC5F4"/>
<path d="M108.209 389.793C108.209 389.793 32.8216 332.89 22.9185 314.211C13.0154 295.531 7.94006 289.47 7.94006 289.47C7.94006 289.47 20.9379 281.8 29.6031 290.336C38.2683 298.871 47.1811 280.811 62.5309 306.665C62.5309 306.665 64.2639 324.849 75.4049 321.138C86.7934 317.303 108.209 389.793 108.209 389.793Z" fill="#E1E6FB"/>
<path d="M118.483 399.071C118.483 399.071 61.6643 350.827 41.363 330.91C26.2608 316.066 7.94004 289.47 7.94004 289.47C7.94004 289.47 -3.94367 299.985 1.50303 310.499C6.70215 320.396 -2.33442 327.942 4.96911 339.693C12.7678 352.435 33.6881 347.239 26.6321 364.434C22.2995 374.825 32.8216 385.711 41.363 391.896C46.8097 395.854 65.378 394.123 60.674 393.628C49.7806 392.638 118.483 399.071 118.483 399.071Z" fill="#F8F8FF"/>
<path d="M70.0993 371.049C71.0485 370.066 61.4458 359.272 48.6512 346.941C35.8565 334.61 24.7149 325.411 23.7657 326.395C22.8165 327.378 32.4191 338.172 45.2138 350.503C58.0085 362.834 69.1501 372.033 70.0993 371.049Z" fill="#E1E6FB"/>
<path d="M501.114 238.381C501.114 238.381 559.914 142.758 563.751 117.276C567.589 91.7927 570.683 82.8861 570.683 82.8861C570.683 82.8861 554.343 79.175 548.278 92.5349C542.212 105.895 526.491 88.7002 519.559 124.574C519.559 124.574 517.454 142.635 505.323 136.078C493.192 129.522 501.114 238.381 501.114 238.381Z" fill="#E1E6FB"/>
<path d="M493.687 253.101C493.687 253.101 536.146 174.921 550.382 143.872C560.904 120.863 570.683 82.8861 570.683 82.8861C570.683 82.8861 587.023 90.1846 584.919 104.534C582.938 118.018 595.193 123.09 591.727 139.542C588.014 157.355 564.246 159.706 577.863 176.653C586.033 186.92 578.977 203.62 572.169 214.135C567.836 220.815 547.782 226.381 552.486 223.907C563.38 218.341 493.687 253.101 493.687 253.101Z" fill="#BAC5F4"/>
<path d="M535.156 151.046C526.119 170.344 519.93 186.549 521.292 187.291C522.653 188.034 531.071 173.066 540.107 153.768C549.144 134.47 555.333 118.265 553.972 117.399C552.61 116.533 544.192 131.749 535.156 151.046Z" fill="#BAC5F4"/>
<path d="M479.822 301.593C479.822 301.593 566.227 235.783 578.111 213.393C589.994 191.002 595.936 183.951 595.936 183.951C595.936 183.951 581.948 174.055 571.921 184.075C561.894 194.095 552.981 171.705 534.537 202.507C534.537 202.507 531.814 224.526 519.559 219.454C507.056 214.382 479.822 301.593 479.822 301.593Z" fill="#F8F8FF"/>
<path d="M468.062 312.479C468.062 312.479 533.423 256.318 556.943 232.938C574.397 215.619 596.06 184.075 596.06 184.075C596.06 184.075 608.686 197.435 602.126 210.053C595.812 221.928 605.468 231.453 596.926 245.432C587.642 260.523 564.741 253.349 571.797 274.626C576.006 287.491 563.875 300.232 554.096 307.407C547.906 311.984 527.357 309.015 532.68 308.644C544.44 307.654 468.062 312.479 468.062 312.479Z" fill="#E1E6FB"/>
<path d="M554.838 247.164C540.726 262.255 530.081 275.368 531.071 276.605C532.061 277.842 544.44 266.585 558.552 251.493C572.664 236.401 583.31 223.289 582.319 222.052C581.329 220.815 568.95 232.072 554.838 247.164Z" fill="white"/>
<path d="M226.303 326.086H130.986V452.263H226.303V326.086Z" fill="#BAC5F4"/>
<path d="M434.268 327.323H338.951V453.5H434.268V327.323Z" fill="#E1E6FB"/>
<path d="M376.087 34.1472H314.193V113.317H376.087V34.1472Z" fill="#E1E6FB"/>
<path d="M519.682 99.7097H87.6599V417.626H519.682V99.7097Z" fill="#BAC5F4"/>
<path d="M519.682 99.7097H98.8009V417.626H519.682V99.7097Z" fill="#F8F8FF"/>
<path d="M514.731 104.658H102.515V126.924H514.731V104.658Z" fill="white"/>
<path d="M514.731 125.687H102.515V412.678H514.731V125.687Z" fill="#E1E6FB"/>
<path d="M221.352 136.821H170.598V193.724H221.352V136.821Z" fill="#BAC5F4"/>
<path d="M278.294 136.821H227.541V193.724H278.294V136.821Z" fill="#BAC5F4"/>
<path d="M333.999 136.821H283.246V193.724H333.999V136.821Z" fill="#BAC5F4"/>
<path d="M390.942 136.821H340.189V193.724H390.942V136.821Z" fill="white"/>
<path d="M446.647 136.821H395.894V193.724H446.647V136.821Z" fill="white"/>
<path d="M503.59 136.821H452.836V193.724H503.59V136.821Z" fill="white"/>
<path d="M221.352 202.383H170.598V259.286H221.352V202.383Z" fill="white"/>
<path d="M278.294 202.383H227.541V259.286H278.294V202.383Z" fill="white"/>
<path d="M333.999 202.383H283.246V259.286H333.999V202.383Z" fill="#F8F8FF"/>
<path d="M390.942 202.383H340.189V259.286H390.942V202.383Z" fill="white"/>
<path d="M446.647 202.383H395.894V259.286H446.647V202.383Z" fill="white"/>
<path d="M503.59 202.383H452.836V259.286H503.59V202.383Z" fill="white"/>
<path d="M221.352 265.472H170.598V322.375H221.352V265.472Z" fill="white"/>
<path d="M278.294 265.472H227.541V322.375H278.294V265.472Z" fill="white"/>
<path d="M333.999 265.472H283.246V322.375H333.999V265.472Z" fill="#F8F8FF"/>
<path d="M390.942 265.472H340.189V322.375H390.942V265.472Z" fill="white"/>
<path d="M446.647 265.472H395.894V322.375H446.647V265.472Z" fill="#F8F8FF"/>
<path d="M503.59 265.472H452.836V322.375H503.59V265.472Z" fill="white"/>
<path d="M222.59 329.797H171.836V386.7H222.59V329.797Z" fill="#F8F8FF"/>
<path d="M279.532 329.797H228.779V386.7H279.532V329.797Z" fill="#F8F8FF"/>
<path d="M335.237 329.797H284.484V386.7H335.237V329.797Z" fill="white"/>
<path d="M392.18 329.797H341.427V386.7H392.18V329.797Z" fill="white"/>
<path d="M447.885 329.797H397.132V386.7H447.885V329.797Z" fill="#BAC5F4"/>
<path d="M504.828 329.797H454.074V386.7H504.828V329.797Z" fill="white"/>
<path d="M114.274 120.739C116.667 120.739 118.607 118.801 118.607 116.41C118.607 114.018 116.667 112.08 114.274 112.08C111.882 112.08 109.942 114.018 109.942 116.41C109.942 118.801 111.882 120.739 114.274 120.739Z" fill="#BAC5F4"/>
<path d="M127.891 120.739C130.284 120.739 132.224 118.801 132.224 116.41C132.224 114.018 130.284 112.08 127.891 112.08C125.498 112.08 123.559 114.018 123.559 116.41C123.559 118.801 125.498 120.739 127.891 120.739Z" fill="#BAC5F4"/>
<path d="M141.508 120.739C143.901 120.739 145.841 118.801 145.841 116.41C145.841 114.018 143.901 112.08 141.508 112.08C139.115 112.08 137.175 114.018 137.175 116.41C137.175 118.801 139.115 120.739 141.508 120.739Z" fill="#BAC5F4"/>
<path d="M120.464 201.146H155.125C158.219 201.146 160.695 203.62 160.695 206.713C160.695 209.805 158.219 212.279 155.125 212.279H120.464C117.369 212.279 114.893 209.805 114.893 206.713C114.893 203.744 117.369 201.146 120.464 201.146Z" fill="white"/>
<path d="M120.464 265.472H155.125C158.219 265.472 160.695 267.946 160.695 271.038C160.695 274.131 158.219 276.605 155.125 276.605H120.464C117.369 276.605 114.893 274.131 114.893 271.038C114.893 268.069 117.369 265.472 120.464 265.472Z" fill="white"/>
<path d="M120.464 329.797H155.125C158.219 329.797 160.695 332.271 160.695 335.364C160.695 338.456 158.219 340.93 155.125 340.93H120.464C117.369 340.93 114.893 338.456 114.893 335.364C114.893 332.395 117.369 329.797 120.464 329.797Z" fill="white"/>
<path d="M179.883 206.094H199.689C202.041 206.094 204.021 208.073 204.021 210.424C204.021 212.774 202.041 214.753 199.689 214.753H179.883C177.531 214.753 175.55 212.774 175.55 210.424C175.55 208.073 177.531 206.094 179.883 206.094Z" fill="#BAC5F4"/>
<path d="M178.645 222.176H187.31C189.043 222.176 190.405 223.536 190.405 225.268C190.405 227 189.043 228.361 187.31 228.361H178.645C176.912 228.361 175.55 227 175.55 225.268C175.55 223.66 176.912 222.176 178.645 222.176Z" fill="#BAC5F4"/>
<path d="M237.444 206.094H257.25C259.355 206.094 260.964 207.702 260.964 209.805C260.964 211.908 259.355 213.516 257.25 213.516H237.444C235.34 213.516 233.731 211.908 233.731 209.805C233.731 207.826 235.34 206.094 237.444 206.094Z" fill="#BAC5F4"/>
<path d="M405.797 338.456H425.603C427.707 338.456 429.317 340.064 429.317 342.167C429.317 344.27 427.707 345.878 425.603 345.878H405.797C403.692 345.878 402.083 344.27 402.083 342.167C402.083 340.188 403.692 338.456 405.797 338.456Z" fill="white"/>
<path d="M461.502 271.657H481.308C483.412 271.657 485.021 273.265 485.021 275.368C485.021 277.471 483.412 279.079 481.308 279.079H461.502C459.397 279.079 457.788 277.471 457.788 275.368C457.788 273.389 459.397 271.657 461.502 271.657Z" fill="#F5F5FC"/>
<path d="M460.264 207.331H480.07C482.174 207.331 483.784 208.939 483.784 211.042C483.784 213.145 482.174 214.753 480.07 214.753H460.264C458.159 214.753 456.55 213.145 456.55 211.042C456.55 209.063 458.159 207.331 460.264 207.331Z" fill="#F5F5FC"/>
<path d="M404.559 207.331H424.365C426.469 207.331 428.079 208.939 428.079 211.042C428.079 213.145 426.469 214.753 424.365 214.753H404.559C402.454 214.753 400.845 213.145 400.845 211.042C400.845 209.063 402.454 207.331 404.559 207.331Z" fill="#F5F5FC"/>
<path d="M238.682 228.361C241.417 228.361 243.634 226.145 243.634 223.413C243.634 220.68 241.417 218.464 238.682 218.464C235.947 218.464 233.731 220.68 233.731 223.413C233.731 226.145 235.947 228.361 238.682 228.361Z" fill="#BAC5F4"/>
<path d="M351.33 219.702C354.064 219.702 356.281 217.486 356.281 214.753C356.281 212.021 354.064 209.805 351.33 209.805C348.595 209.805 346.378 212.021 346.378 214.753C346.378 217.486 348.595 219.702 351.33 219.702Z" fill="#BAC5F4"/>
<path d="M368.66 219.702C371.395 219.702 373.612 217.486 373.612 214.753C373.612 212.021 371.395 209.805 368.66 209.805C365.926 209.805 363.709 212.021 363.709 214.753C363.709 217.486 365.926 219.702 368.66 219.702Z" fill="#BAC5F4"/>
<path d="M368.66 281.553C371.395 281.553 373.612 279.338 373.612 276.605C373.612 273.872 371.395 271.657 368.66 271.657C365.926 271.657 363.709 273.872 363.709 276.605C363.709 279.338 365.926 281.553 368.66 281.553Z" fill="#BAC5F4"/>
<path d="M351.33 281.553C354.064 281.553 356.281 279.338 356.281 276.605C356.281 273.872 354.064 271.657 351.33 271.657C348.595 271.657 346.378 273.872 346.378 276.605C346.378 279.338 348.595 281.553 351.33 281.553Z" fill="#BAC5F4"/>
<path d="M367.422 344.641C370.157 344.641 372.374 342.426 372.374 339.693C372.374 336.961 370.157 334.745 367.422 334.745C364.688 334.745 362.471 336.961 362.471 339.693C362.471 342.426 364.688 344.641 367.422 344.641Z" fill="#BAC5F4"/>
<path d="M350.092 344.641C352.827 344.641 355.043 342.426 355.043 339.693C355.043 336.961 352.827 334.745 350.092 334.745C347.357 334.745 345.14 336.961 345.14 339.693C345.14 342.426 347.357 344.641 350.092 344.641Z" fill="#BAC5F4"/>
<path d="M199.07 345.878C201.804 345.878 204.021 343.663 204.021 340.93C204.021 338.198 201.804 335.982 199.07 335.982C196.335 335.982 194.118 338.198 194.118 340.93C194.118 343.663 196.335 345.878 199.07 345.878Z" fill="#BAC5F4"/>
<path d="M181.739 345.878C184.474 345.878 186.691 343.663 186.691 340.93C186.691 338.198 184.474 335.982 181.739 335.982C179.005 335.982 176.788 338.198 176.788 340.93C176.788 343.663 179.005 345.878 181.739 345.878Z" fill="#BAC5F4"/>
<path d="M351.33 152.902C354.064 152.902 356.281 150.687 356.281 147.954C356.281 145.221 354.064 143.006 351.33 143.006C348.595 143.006 346.378 145.221 346.378 147.954C346.378 150.687 348.595 152.902 351.33 152.902Z" fill="#BAC5F4"/>
<path d="M293.149 152.902C295.884 152.902 298.101 150.687 298.101 147.954C298.101 145.221 295.884 143.006 293.149 143.006C290.414 143.006 288.198 145.221 288.198 147.954C288.198 150.687 290.414 152.902 293.149 152.902Z" fill="white"/>
<path d="M310.48 152.902C313.214 152.902 315.431 150.687 315.431 147.954C315.431 145.221 313.214 143.006 310.48 143.006C307.745 143.006 305.528 145.221 305.528 147.954C305.528 150.687 307.745 152.902 310.48 152.902Z" fill="white"/>
<path d="M237.444 152.902C240.179 152.902 242.396 150.687 242.396 147.954C242.396 145.221 240.179 143.006 237.444 143.006C234.71 143.006 232.493 145.221 232.493 147.954C232.493 150.687 234.71 152.902 237.444 152.902Z" fill="white"/>
<path d="M254.775 152.902C257.509 152.902 259.726 150.687 259.726 147.954C259.726 145.221 257.509 143.006 254.775 143.006C252.04 143.006 249.823 145.221 249.823 147.954C249.823 150.687 252.04 152.902 254.775 152.902Z" fill="white"/>
<path d="M181.739 152.902C184.474 152.902 186.691 150.687 186.691 147.954C186.691 145.221 184.474 143.006 181.739 143.006C179.005 143.006 176.788 145.221 176.788 147.954C176.788 150.687 179.005 152.902 181.739 152.902Z" fill="white"/>
<path d="M199.07 152.902C201.804 152.902 204.021 150.687 204.021 147.954C204.021 145.221 201.804 143.006 199.07 143.006C196.335 143.006 194.118 145.221 194.118 147.954C194.118 150.687 196.335 152.902 199.07 152.902Z" fill="white"/>
<path d="M370.172 166.43V165.272L375.278 157.194H376.118V158.987H375.55L371.693 165.091V165.182H378.569V166.43H370.172ZM375.641 168.812V166.078V165.539V157.194H376.98V168.812H375.641Z" fill="#BCC6F0"/>
<path d="M260.273 168.812V167.791L264.108 163.593C264.558 163.101 264.929 162.674 265.22 162.311C265.511 161.944 265.727 161.6 265.867 161.278C266.01 160.953 266.082 160.613 266.082 160.257C266.082 159.849 265.984 159.495 265.787 159.196C265.594 158.898 265.329 158.667 264.993 158.504C264.656 158.342 264.278 158.26 263.858 158.26C263.412 158.26 263.022 158.353 262.69 158.538C262.36 158.72 262.105 158.975 261.924 159.304C261.746 159.633 261.657 160.019 261.657 160.462H260.318C260.318 159.781 260.475 159.183 260.789 158.669C261.103 158.154 261.53 157.754 262.071 157.466C262.616 157.179 263.227 157.035 263.904 157.035C264.584 157.035 265.188 157.179 265.713 157.466C266.239 157.754 266.651 158.141 266.95 158.629C267.249 159.117 267.398 159.66 267.398 160.257C267.398 160.685 267.321 161.103 267.166 161.511C267.014 161.916 266.75 162.368 266.371 162.867C265.997 163.362 265.477 163.968 264.811 164.682L262.202 167.474V167.564H267.602V168.812H260.273Z" fill="white"/>
<path d="M202.876 232.891L208.073 222.611V222.52H202.082V221.272H209.525V222.588L204.351 232.891H202.876Z" fill="#BCC6F0"/>
<path d="M363.797 221.346V232.965H362.39V222.821H362.322L359.485 224.705V223.275L362.39 221.346H363.797ZM370.928 233.124C370.073 233.124 369.345 232.891 368.744 232.426C368.143 231.957 367.683 231.278 367.365 230.389C367.048 229.497 366.889 228.419 366.889 227.155C366.889 225.9 367.048 224.828 367.365 223.939C367.687 223.046 368.148 222.365 368.75 221.896C369.355 221.424 370.081 221.187 370.928 221.187C371.775 221.187 372.5 221.424 373.101 221.896C373.706 222.365 374.167 223.046 374.485 223.939C374.807 224.828 374.967 225.9 374.967 227.155C374.967 228.419 374.808 229.497 374.491 230.389C374.173 231.278 373.714 231.957 373.112 232.426C372.511 232.891 371.783 233.124 370.928 233.124ZM370.928 231.875C371.775 231.875 372.433 231.467 372.902 230.65C373.371 229.833 373.606 228.668 373.606 227.155C373.606 226.149 373.498 225.293 373.282 224.585C373.071 223.878 372.764 223.339 372.363 222.969C371.966 222.598 371.488 222.413 370.928 222.413C370.088 222.413 369.432 222.827 368.959 223.655C368.487 224.48 368.25 225.646 368.25 227.155C368.25 228.161 368.356 229.016 368.568 229.72C368.78 230.423 369.084 230.958 369.481 231.325C369.882 231.692 370.365 231.875 370.928 231.875Z" fill="#BCC6F0"/>
<path d="M311.372 285.387V297.006H309.965V286.862H309.897L307.061 288.746V287.316L309.965 285.387H311.372ZM318.345 297.165C317.679 297.165 317.08 297.032 316.546 296.767C316.013 296.503 315.586 296.14 315.264 295.678C314.943 295.217 314.767 294.691 314.737 294.101H316.098C316.151 294.627 316.389 295.062 316.813 295.406C317.24 295.746 317.751 295.916 318.345 295.916C318.821 295.916 319.245 295.805 319.615 295.582C319.99 295.359 320.283 295.052 320.495 294.663C320.71 294.269 320.818 293.825 320.818 293.33C320.818 292.823 320.707 292.371 320.483 291.974C320.264 291.573 319.961 291.257 319.576 291.026C319.19 290.796 318.749 290.678 318.254 290.674C317.898 290.671 317.533 290.726 317.159 290.839C316.785 290.949 316.476 291.091 316.234 291.264L314.918 291.106L315.622 285.387H321.658V286.635H316.802L316.393 290.062H316.461C316.699 289.873 316.998 289.716 317.358 289.591C317.717 289.466 318.091 289.404 318.481 289.404C319.192 289.404 319.825 289.574 320.381 289.914C320.941 290.251 321.38 290.712 321.697 291.299C322.019 291.885 322.18 292.554 322.18 293.307C322.18 294.048 322.013 294.71 321.68 295.292C321.351 295.871 320.898 296.329 320.319 296.665C319.74 296.998 319.082 297.165 318.345 297.165Z" fill="#BCC6F0"/>
<path d="M478.487 287.861V299.48H477.08V289.336H477.012L474.175 291.22V289.79L477.08 287.861H478.487ZM485.55 299.639C484.771 299.639 484.083 299.501 483.485 299.224C482.891 298.945 482.428 298.561 482.095 298.073C481.762 297.581 481.598 297.021 481.602 296.394C481.598 295.902 481.694 295.448 481.891 295.032C482.088 294.612 482.356 294.262 482.697 293.982C483.041 293.699 483.425 293.519 483.848 293.444V293.375C483.292 293.232 482.85 292.92 482.521 292.439C482.192 291.955 482.029 291.405 482.033 290.789C482.029 290.198 482.178 289.671 482.481 289.206C482.784 288.74 483.2 288.374 483.729 288.105C484.262 287.837 484.869 287.702 485.55 287.702C486.223 287.702 486.825 287.837 487.354 288.105C487.884 288.374 488.3 288.74 488.602 289.206C488.909 289.671 489.064 290.198 489.068 290.789C489.064 291.405 488.895 291.955 488.563 292.439C488.234 292.92 487.797 293.232 487.252 293.375V293.444C487.672 293.519 488.05 293.699 488.387 293.982C488.723 294.262 488.992 294.612 489.192 295.032C489.393 295.448 489.495 295.902 489.499 296.394C489.495 297.021 489.325 297.581 488.988 298.073C488.655 298.561 488.192 298.945 487.598 299.224C487.008 299.501 486.325 299.639 485.55 299.639ZM485.55 298.391C486.076 298.391 486.53 298.305 486.912 298.135C487.294 297.965 487.589 297.725 487.797 297.415C488.005 297.105 488.111 296.742 488.114 296.326C488.111 295.887 487.997 295.499 487.774 295.163C487.551 294.826 487.246 294.561 486.861 294.368C486.479 294.175 486.042 294.079 485.55 294.079C485.055 294.079 484.612 294.175 484.223 294.368C483.837 294.561 483.532 294.826 483.309 295.163C483.09 295.499 482.982 295.887 482.986 296.326C482.982 296.742 483.082 297.105 483.287 297.415C483.495 297.725 483.791 297.965 484.177 298.135C484.563 298.305 485.021 298.391 485.55 298.391ZM485.55 292.876C485.966 292.876 486.335 292.793 486.656 292.627C486.982 292.46 487.237 292.228 487.422 291.929C487.608 291.63 487.702 291.28 487.706 290.879C487.702 290.486 487.61 290.144 487.428 289.852C487.246 289.557 486.995 289.331 486.673 289.172C486.352 289.009 485.978 288.928 485.55 288.928C485.115 288.928 484.735 289.009 484.41 289.172C484.085 289.331 483.833 289.557 483.655 289.852C483.478 290.144 483.391 290.486 483.394 290.879C483.391 291.28 483.479 291.63 483.661 291.929C483.846 292.228 484.102 292.46 484.427 292.627C484.752 292.793 485.127 292.876 485.55 292.876Z" fill="#BCC6F0"/>
<path d="M242.608 358.103V357.081L246.443 352.883C246.893 352.392 247.264 351.964 247.555 351.601C247.846 351.234 248.062 350.89 248.202 350.569C248.346 350.243 248.417 349.903 248.417 349.547C248.417 349.139 248.319 348.785 248.122 348.487C247.93 348.188 247.665 347.957 247.328 347.794C246.992 347.632 246.613 347.55 246.194 347.55C245.747 347.55 245.358 347.643 245.025 347.828C244.696 348.01 244.441 348.265 244.259 348.594C244.081 348.923 243.992 349.309 243.992 349.752H242.653C242.653 349.071 242.81 348.473 243.124 347.959C243.438 347.445 243.866 347.044 244.406 346.756C244.951 346.469 245.562 346.325 246.239 346.325C246.92 346.325 247.523 346.469 248.049 346.756C248.574 347.044 248.987 347.431 249.285 347.919C249.584 348.407 249.734 348.95 249.734 349.547C249.734 349.975 249.656 350.393 249.501 350.801C249.35 351.206 249.085 351.658 248.707 352.157C248.332 352.653 247.812 353.258 247.147 353.973L244.537 356.764V356.854H249.938V358.103H242.608Z" fill="#BCC6F0"/>
<path d="M260.918 358.261C260.063 358.261 259.335 358.029 258.734 357.564C258.133 357.095 257.673 356.416 257.355 355.527C257.038 354.634 256.879 353.556 256.879 352.293C256.879 351.038 257.038 349.965 257.355 349.077C257.677 348.184 258.138 347.503 258.74 347.034C259.345 346.561 260.071 346.325 260.918 346.325C261.765 346.325 262.49 346.561 263.091 347.034C263.696 347.503 264.158 348.184 264.475 349.077C264.797 349.965 264.957 351.038 264.957 352.293C264.957 353.556 264.799 354.634 264.481 355.527C264.163 356.416 263.704 357.095 263.102 357.564C262.501 358.029 261.773 358.261 260.918 358.261ZM260.918 357.013C261.765 357.013 262.423 356.605 262.892 355.788C263.361 354.971 263.596 353.806 263.596 352.293C263.596 351.287 263.488 350.431 263.273 349.723C263.061 349.016 262.754 348.477 262.353 348.106C261.956 347.736 261.478 347.55 260.918 347.55C260.079 347.55 259.422 347.965 258.95 348.793C258.477 349.617 258.24 350.784 258.24 352.293C258.24 353.299 258.346 354.154 258.558 354.858C258.77 355.561 259.074 356.096 259.472 356.463C259.872 356.83 260.355 357.013 260.918 357.013Z" fill="#BCC6F0"/>
<path d="M172.455 437.542C170.351 436.182 167.999 434.573 162.057 433.336C157.105 432.47 154.258 424.801 154.258 424.801H142.87C142.87 424.801 141.879 437.542 142.375 438.532C142.87 439.522 143.117 440.635 145.841 441.501C148.44 442.243 171.589 441.996 172.579 441.748C173.446 441.625 176.293 440.016 172.455 437.542Z" fill="#4B49BB"/>
<path d="M39.8775 315.324C38.3921 317.551 31.5837 339.693 31.5837 340.807C31.4599 341.92 32.0789 345.013 35.5449 342.167C37.4018 340.559 39.7538 338.827 42.6009 333.385C44.9529 329.055 53.1229 328.436 53.1229 328.436L56.589 317.674C56.589 317.674 44.7053 312.85 43.5912 312.974C42.4771 313.097 41.363 313.097 39.8775 315.324Z" fill="#4B49BB"/>
<path d="M114.893 275.244C114.646 275.368 114.275 277.471 114.151 277.718C112.418 283.161 96.5728 331.405 96.5728 333.385C96.5728 335.487 62.5309 320.025 57.0842 317.674C56.589 317.427 56.2177 317.674 55.9701 318.045C54.856 320.396 51.7613 327.323 52.8754 328.189C54.237 329.179 90.012 354.661 92.9829 355.404C95.9538 356.146 100.286 359.733 107.59 351.074C113.903 343.528 131.481 315.076 136.309 307.036C136.556 306.665 137.052 306.541 137.423 306.788C137.671 306.912 137.794 307.159 137.918 307.407C138.785 315.076 139.156 344.765 141.756 352.806C144.355 360.723 140.642 369.258 140.642 381.01L142.746 424.059C142.746 424.554 143.117 424.801 143.489 424.801L153.392 425.048C153.887 425.048 154.134 424.801 154.258 424.306C154.877 417.379 161.438 365.3 162.057 357.259C162.8 348.476 167.009 274.873 165.894 270.42C165.028 267.575 120.34 274.378 114.893 275.244Z" fill="url(#paint0_linear_10_1500)"/>
<path d="M118.607 145.727C118.607 145.727 121.083 135.831 123.063 135.831C125.044 135.831 137.052 137.315 138.537 144.366C140.023 151.418 145.469 155.376 145.469 163.788C145.469 172.323 148.935 176.158 148.935 176.158C148.935 176.158 152.897 163.664 155.867 158.221C158.838 152.778 164.038 149.438 164.038 145.727C164.038 142.016 159.705 100.576 159.334 99.4623C158.962 98.349 157.848 91.7928 160.448 88.0817C160.448 88.0817 168.37 81.5254 169.36 78.9277C170.103 76.701 172.703 75.464 174.188 78.0617C175.674 80.6595 169.608 87.5869 168.618 90.3083C167.751 92.9061 167.132 95.6275 166.761 98.4727C166.761 99.2149 165.275 110.224 165.275 115.667C165.275 121.11 168.618 138.429 168.618 143.995C168.618 149.438 156.486 171.457 155.372 175.54C154.258 179.622 118.978 218.093 118.236 219.207C117.493 220.32 113.903 228.732 113.903 231.701C113.903 234.67 113.903 244.195 115.389 242.339C116.874 240.484 122.94 225.887 124.054 224.031C125.168 222.176 133.833 220.444 137.918 219.33C142.003 218.217 148.069 220.444 147.326 223.042C146.583 225.639 134.7 230.464 130.862 231.33C128.51 231.948 117.988 243.452 117.245 246.792C116.503 250.132 106.971 245.308 106.971 240.607C106.971 235.907 108.085 211.661 109.571 208.321C111.056 204.981 117.741 190.755 121.33 183.333C125.044 175.911 116.998 172.323 115.512 167.128C113.656 162.056 118.607 145.727 118.607 145.727Z" fill="url(#paint1_linear_10_1500)"/>
<path d="M150.173 169.231C150.173 169.231 159.705 152.036 160.695 147.706C161.686 143.377 159.21 99.3386 159.21 99.3386L166.637 98.2253C166.637 98.2253 173.693 139.047 174.683 143.872C175.674 148.572 172.208 158.84 168.865 164.654C165.523 170.468 156.486 194.59 156.486 197.435C156.486 200.28 157.105 227.371 158.591 232.69C160.076 238.01 166.018 270.667 166.018 270.667L114.893 275.492C114.893 275.492 117.122 261.266 116.998 256.441C116.626 246.05 113.779 238.257 121.33 233.309C126.406 230.093 131.234 231.577 136.804 228.979C143.117 225.887 144.603 223.289 144.974 221.557C145.222 220.567 143.612 218.217 133.709 221.804C130.367 223.041 123.806 222.918 123.559 227.247C123.435 230.835 128.139 238.628 122.568 242.092C122.568 242.092 116.255 257.06 110.313 259.41C105.238 261.389 99.1723 255.946 99.2961 248.895C99.4198 240.36 99.915 224.155 103.876 217.104C107.714 210.053 118.36 191.868 120.216 190.384C122.073 188.9 127.891 195.827 134.576 194.961C141.26 193.971 144.108 190.879 145.593 187.539C146.955 184.075 150.173 169.231 150.173 169.231Z" fill="url(#paint2_linear_10_1500)"/>
<path d="M128.758 137.934C131.729 142.758 135.69 146.964 140.146 150.304C147.945 156.242 140.27 172.942 139.899 181.23C139.651 187.91 143.612 197.064 153.144 203.249C160.076 207.826 155.249 217.97 155.249 223.165C155.249 228.237 166.39 215.99 166.761 210.053C167.256 202.878 165.399 197.682 160.324 191.868C155.62 186.425 150.049 165.891 148.44 156.118C148.316 155.129 148.193 154.139 148.316 153.149C148.44 149.686 148.069 138.8 138.166 132.738C126.406 125.44 119.102 132.12 114.398 136.202C108.58 141.15 106.228 154.758 107.714 175.911C109.199 197.064 105.486 209.187 103.01 215.248C97.3155 229.227 112.789 219.454 115.636 211.413C119.35 201.146 121.826 200.28 127.025 192.239C129.129 189.147 126.406 178.385 124.054 173.931C119.721 165.272 117.245 161.685 117.245 155.871C117.245 150.057 124.425 140.161 128.758 137.934Z" fill="url(#paint3_linear_10_1500)"/>
<path opacity="0.07" d="M131.11 175.787C131.11 175.787 139.404 176.282 141.632 171.086C141.879 170.468 140.27 187.168 139.899 184.941C139.28 182.714 131.11 175.787 131.11 175.787Z" fill="black"/>
<path opacity="0.07" d="M116.503 214.382C116.503 214.382 114.646 226.258 113.532 231.577C112.913 234.546 112.542 237.391 112.542 240.36C112.542 240.36 119.597 231.577 121.826 228.113C123.187 225.887 118.979 227 118.607 218.959C118.236 210.919 118.36 205.847 118.36 205.847L116.503 214.382Z" fill="black"/>
<path opacity="0.07" d="M117.122 252.359C117.122 252.359 123.435 246.174 123.682 242.958C124.054 238.752 127.025 238.999 127.025 241.597C127.025 244.195 122.321 263.863 125.168 269.059C128.015 274.255 130.243 274.131 130.243 274.131L114.893 275.244L117.122 252.359Z" fill="black"/>
<path opacity="0.07" d="M130.243 274.131C130.243 274.131 131.11 289.717 125.539 294.913C114.151 305.551 120.835 319.406 115.76 325.468C111.551 330.539 110.437 345.013 100.286 348.229C96.3252 349.59 81.8419 340.683 78.871 339.693C72.6815 337.59 68.2251 325.715 48.9141 319.53C44.3339 318.045 60.7978 319.653 60.7978 319.653L96.5727 334.498L115.017 275.368L130.243 274.131Z" fill="black"/>
<path d="M458.531 413.915H456.798L447.514 414.039C447.514 414.039 445.533 423.564 444.419 427.522C444.419 427.77 444.171 428.388 444.048 428.883C443.924 429.625 443.8 430.244 443.8 430.986C444.048 434.573 445.285 437.666 448.628 439.274C452.218 441.006 454.941 442.738 458.655 439.274C462.368 435.81 462.987 433.708 461.502 427.646C459.892 421.708 459.397 414.039 458.531 413.915Z" fill="#4B44BE"/>
<path d="M497.524 425.791C491.087 423.811 486.755 415.028 486.755 415.028L475.737 414.41C475.737 414.41 475.118 423.316 474.871 427.77C474.5 433.708 475.49 436.429 479.451 436.058C484.65 435.687 505.694 437.542 509.037 435.439C513.369 432.594 503.466 427.646 497.524 425.791Z" fill="#4B44BE"/>
<path d="M431.792 256.565V269.677L447.637 414.039H458.902C458.902 414.039 462.74 315.076 462.74 311.613C462.74 308.149 463.73 297.387 463.73 297.387C463.73 297.387 477.842 338.085 478.089 341.425C478.337 344.765 475.737 414.905 475.737 414.905L487.002 415.399C487.002 415.399 496.781 368.021 496.781 363.568C496.781 359.115 500.124 335.735 499.629 331.282C499.133 326.828 490.84 257.06 490.84 257.06L473.633 256.565H431.792Z" fill="url(#paint4_linear_10_1500)"/>
<path d="M504.456 241.35L504.332 241.102C504.332 241.35 504.332 241.473 504.456 241.35ZM471.528 228.732L465.215 231.33L464.844 239.989L471.776 242.71C471.776 242.71 479.327 242.463 479.327 242.339C479.327 241.968 482.298 242.092 483.66 242.958L507.18 234.917L508.046 229.35C508.046 229.35 509.779 236.401 501.98 222.176L471.528 228.732ZM499.505 200.156L499.01 197.311L497.772 197.064L499.505 200.156ZM456.179 124.698C453.332 125.935 451.846 130.141 451.846 130.141C451.846 130.141 450.484 129.275 450.484 131.625C450.484 133.975 451.722 139.418 452.465 140.779C453.951 143.129 455.312 145.48 456.55 147.954C457.664 150.428 457.293 155.5 456.055 156.242C454.817 156.984 433.525 176.158 433.525 176.158L415.947 230.216V232.319L418.671 233.309L421.518 235.659C421.765 235.659 425.355 237.638 425.85 238.01C428.698 239.37 431.669 240.484 434.639 241.102C436.62 241.473 445.409 241.35 445.409 241.35L454.322 241.102L452.836 229.721L439.591 229.598L421.518 228.732L439.839 186.673L497.524 196.94C487.25 178.385 475.737 157.603 474.747 155.376C473.88 153.644 474.747 149.315 475.242 147.088C475.737 145.109 476.728 142.511 477.594 141.769C478.584 141.026 480.194 137.687 480.194 136.326C480.194 134.965 480.565 129.275 479.451 130.512C479.08 130.883 477.718 128.78 477.223 126.553C476.48 123.461 474.252 121.234 471.776 119.255C471.776 119.255 459.026 123.461 456.179 124.574" fill="url(#paint5_linear_10_1500)"/>
<path d="M434.021 164.654C431.173 166.509 428.698 169.107 427.707 172.323C426.717 175.663 420.032 201.146 419.166 204.486C416.938 212.403 415.7 214.63 413.1 224.031C409.882 235.535 417.185 237.267 424.736 238.875C432.535 240.607 432.535 241.35 434.392 241.35C434.64 241.35 443.924 243.205 444.171 238.01C444.419 234.67 443.8 229.474 442.562 229.598C439.715 229.969 430.554 227.619 430.059 227.247C429.44 226.876 432.04 219.702 433.525 215.248C434.64 211.908 438.848 198.301 439.839 195.827C440.334 194.466 437.487 209.063 435.754 223.413C435.754 223.907 435.011 229.474 435.258 229.474C437.363 229.474 443.057 229.598 444.914 229.721C452.96 230.711 454.569 234.546 454.074 237.638C453.208 242.958 433.525 240.484 433.649 241.226C433.649 241.226 430.307 256.441 432.164 257.431C433.773 258.297 455.807 267.451 460.511 269.183C461.006 269.43 461.625 269.183 461.749 268.564L464.72 260.029C464.72 259.905 464.844 259.905 464.968 259.905C464.968 259.905 465.092 259.905 465.092 260.029L467.939 269.43C467.939 269.677 468.186 269.925 468.434 269.925H469.672L494.182 264.606C494.182 264.606 494.058 254.957 494.058 242.587C494.058 241.35 493.811 236.773 492.944 237.638C492.077 238.504 471.652 241.226 469.424 240.236C464.72 238.257 465.958 233.309 467.567 231.33C469.424 228.979 493.563 227.866 493.687 226.134C494.058 218.588 493.439 198.672 493.068 201.146C492.449 204.857 478.337 225.268 478.337 228.856C478.337 232.443 478.089 241.35 478.089 241.35L501.238 239.618C501.238 239.618 509.037 236.896 509.655 232.443C510.398 227.99 509.532 226.01 509.16 219.33C508.913 215.125 502.971 189.642 501.238 182.467C500.99 181.354 500.866 180.24 500.743 179.127C500.495 176.158 499.381 169.231 492.944 166.138C485.022 162.303 478.708 159.335 477.099 159.335C475.614 159.335 471.529 168.241 469.424 170.839C468.434 171.952 468.681 172.571 467.444 174.179C466.825 175.045 465.587 175.168 464.72 174.674C464.473 174.55 464.349 174.303 464.225 174.179C463.482 173.189 462.987 172.076 462.368 170.963C461.378 169.107 454.074 158.221 454.074 158.221C454.074 158.221 436.868 162.674 434.021 164.654Z" fill="url(#paint6_linear_10_1500)"/>
<path d="M471.776 119.378C471.776 119.378 456.179 125.193 455.065 126.058C453.951 126.924 451.846 130.141 451.846 130.141C451.846 130.141 450.732 129.522 450.484 131.13C450.484 131.13 448.875 127.79 448.751 126.058C448.504 124.203 448.751 119.502 451.722 116.41C454.693 113.317 460.759 109.111 464.473 109.73C468.186 110.224 469.795 110.719 472.147 113.07C474.499 115.42 476.48 116.162 477.223 116.41C477.966 116.781 480.565 118.76 481.06 122.347C481.555 125.935 480.318 133.233 480.318 133.233C480.318 133.233 480.689 130.388 479.575 131.254C478.832 131.872 477.594 129.275 477.223 127.667C476.604 126.182 472.643 119.873 471.776 119.378Z" fill="url(#paint7_linear_10_1500)"/>
<path d="M449.123 219.825L475.49 223.165C475.985 223.289 476.356 223.784 476.356 224.402L475.614 248.153C475.614 248.895 475.118 249.885 474.376 249.638L448.133 244.566C447.637 244.442 447.266 243.947 447.266 243.452L447.142 240.855L449.989 240.113C450.732 239.865 451.475 239.494 451.97 239.123C452.094 238.999 452.218 238.875 452.341 238.752L452.96 237.886C453.208 237.638 453.208 237.267 453.208 236.896C453.084 236.401 452.96 235.659 452.836 235.164C452.836 235.041 452.713 234.917 452.713 234.793L452.094 233.433C451.846 232.814 451.351 232.319 450.608 231.948L450.237 231.701L447.39 230.216L447.637 220.939C447.637 220.32 448.133 219.825 448.875 219.825C449.123 219.825 449.123 219.825 449.123 219.825Z" fill="white"/>
<path d="M138.785 65.9388L144.85 65.5677C144.85 65.5677 146.088 58.2693 150.916 55.9189V47.8782C150.916 47.8782 156.61 51.0945 157.724 51.4656C158.962 51.8367 169.856 46.6412 182.234 54.3108C192.757 60.7433 190.405 72.0003 189.414 75.464C189.29 76.0825 188.919 76.701 188.548 77.1958C187.681 78.4328 185.948 80.7832 185.082 81.6491C183.844 82.8861 185.824 89.5661 184.215 90.0609C182.977 90.432 180.625 85.2365 179.387 85.6076C172.95 87.8343 165.894 88.0817 159.21 86.2261C158.715 86.1024 158.343 86.3498 158.096 86.7209C157.601 87.8343 156.486 89.8135 155.62 90.432C154.382 91.2979 154.382 85.9787 153.144 85.2365C151.906 84.4943 138.661 72.7425 138.661 72.7425V65.9388H138.785Z" fill="url(#paint8_linear_10_1500)"/>
<path d="M189.29 67.1759C189.29 67.1759 194.242 63.7122 196.842 66.31C199.441 68.9077 199.07 71.6292 196.965 72.2477C195.356 72.7425 192.88 70.021 193.994 68.4129C195.108 66.8048 196.965 65.8151 199.07 67.1759C201.174 68.5366 202.164 71.5055 202.288 73.1136" stroke="#4B45BD" stroke-width="1.14111" stroke-miterlimit="10" stroke-linecap="round"/>
<path d="M151.659 68.6603C152.889 68.6603 153.887 67.6634 153.887 66.4337C153.887 65.2039 152.889 64.207 151.659 64.207C150.428 64.207 149.431 65.2039 149.431 66.4337C149.431 67.6634 150.428 68.6603 151.659 68.6603Z" fill="#58CAEA"/>
<path d="M160.943 52.8263C160.943 52.8263 169.979 50.3523 175.798 53.0737" stroke="#4B45BD" stroke-width="0.570557" stroke-linecap="round" stroke-linejoin="round"/>
<path d="M168.494 43.9197C173.485 43.9197 177.531 39.8767 177.531 34.8894C177.531 29.9021 173.485 25.8591 168.494 25.8591C163.503 25.8591 159.457 29.9021 159.457 34.8894C159.457 39.8767 163.503 43.9197 168.494 43.9197Z" fill="url(#paint9_linear_10_1500)"/>
<path d="M166.733 33.1069V32.6714C166.515 32.644 166.338 32.5956 166.201 32.5262C166.065 32.4553 165.948 32.3415 165.848 32.1851C165.749 32.0286 165.692 31.8375 165.676 31.6116L166.114 31.5294C166.148 31.7633 166.207 31.9351 166.293 32.0447C166.415 32.1996 166.562 32.2859 166.733 32.3036V30.9172C166.554 30.8834 166.371 30.814 166.184 30.7092C166.045 30.6317 165.938 30.5245 165.862 30.3874C165.788 30.2503 165.751 30.0946 165.751 29.9204C165.751 29.6107 165.861 29.3599 166.08 29.1679C166.227 29.0389 166.444 28.9599 166.733 28.9308V28.7227H166.99V28.9308C167.243 28.955 167.444 29.0292 167.592 29.1534C167.782 29.3115 167.897 29.5284 167.936 29.8043L167.486 29.872C167.46 29.701 167.406 29.5704 167.324 29.48C167.243 29.3881 167.132 29.3276 166.99 29.2986V30.5543C167.209 30.6092 167.354 30.6519 167.425 30.6826C167.561 30.7422 167.671 30.8148 167.757 30.9003C167.842 30.9858 167.907 31.0874 167.953 31.2052C167.999 31.3229 168.023 31.4503 168.023 31.5875C168.023 31.8891 167.927 32.1407 167.735 32.3423C167.543 32.544 167.295 32.652 166.99 32.6666V33.1069H166.733ZM166.733 29.2937C166.564 29.3196 166.43 29.3873 166.332 29.497C166.235 29.6067 166.186 29.7365 166.186 29.8865C166.186 30.0349 166.228 30.1591 166.31 30.2591C166.394 30.3591 166.535 30.439 166.733 30.4987V29.2937ZM166.99 32.3036C167.159 32.2827 167.299 32.2093 167.408 32.0835C167.52 31.9576 167.575 31.802 167.575 31.6165C167.575 31.4584 167.536 31.3318 167.457 31.2366C167.379 31.1398 167.224 31.0535 166.99 30.9777V32.3036Z" fill="#F9B449"/>
<path d="M179.016 24.4984C182.298 24.4984 184.958 21.84 184.958 18.5606C184.958 15.2813 182.298 12.6229 179.016 12.6229C175.734 12.6229 173.074 15.2813 173.074 18.5606C173.074 21.84 175.734 24.4984 179.016 24.4984Z" fill="url(#paint10_linear_10_1500)"/>
<path d="M177.811 17.0361V16.7495C177.668 16.7314 177.551 16.6996 177.461 16.6539C177.372 16.6072 177.294 16.5324 177.229 16.4294C177.164 16.3264 177.126 16.2006 177.116 16.052L177.404 15.9978C177.426 16.1518 177.465 16.2648 177.522 16.337C177.602 16.4389 177.699 16.4957 177.811 16.5074V15.5949C177.694 15.5726 177.573 15.527 177.45 15.458C177.359 15.407 177.288 15.3364 177.238 15.2462C177.189 15.1559 177.165 15.0535 177.165 14.9388C177.165 14.735 177.237 14.5699 177.381 14.4435C177.478 14.3586 177.621 14.3066 177.811 14.2875V14.1505H177.98V14.2875C178.147 14.3034 178.279 14.3522 178.377 14.434C178.502 14.538 178.577 14.6808 178.603 14.8624L178.307 14.907C178.29 14.7944 178.254 14.7084 178.2 14.649C178.147 14.5885 178.074 14.5487 177.98 14.5295V15.356C178.125 15.3921 178.22 15.4203 178.267 15.4404C178.356 15.4797 178.429 15.5275 178.485 15.5838C178.541 15.64 178.584 15.7069 178.614 15.7844C178.645 15.8619 178.66 15.9458 178.66 16.036C178.66 16.2346 178.597 16.4002 178.471 16.5329C178.344 16.6656 178.181 16.7367 177.98 16.7463V17.0361H177.811ZM177.811 14.5264C177.7 14.5433 177.612 14.5879 177.547 14.6601C177.483 14.7323 177.452 14.8178 177.452 14.9165C177.452 15.0142 177.479 15.0959 177.533 15.1618C177.588 15.2276 177.681 15.2801 177.811 15.3194V14.5264ZM177.98 16.5074C178.092 16.4936 178.184 16.4453 178.256 16.3625C178.329 16.2797 178.366 16.1772 178.366 16.0551C178.366 15.9511 178.34 15.8678 178.288 15.8051C178.237 15.7414 178.134 15.6846 177.98 15.6347V16.5074Z" fill="#F9B449"/>
<path d="M157.724 26.6013C160.049 26.6013 161.933 24.7183 161.933 22.3954C161.933 20.0726 160.049 18.1895 157.724 18.1895C155.4 18.1895 153.516 20.0726 153.516 22.3954C153.516 24.7183 155.4 26.6013 157.724 26.6013Z" fill="url(#paint11_linear_10_1500)"/>
<path d="M156.944 21.2376V21.0325C156.841 21.0196 156.758 20.9968 156.693 20.9641C156.629 20.9307 156.574 20.8772 156.527 20.8035C156.48 20.7298 156.453 20.6398 156.446 20.5334L156.652 20.4946C156.668 20.6048 156.696 20.6857 156.736 20.7374C156.794 20.8103 156.863 20.8509 156.944 20.8593V20.2063C156.86 20.1904 156.773 20.1577 156.685 20.1083C156.62 20.0719 156.569 20.0214 156.534 19.9568C156.499 19.8922 156.481 19.8189 156.481 19.7368C156.481 19.591 156.533 19.4728 156.636 19.3824C156.705 19.3217 156.808 19.2844 156.944 19.2708V19.1728H157.065V19.2708C157.184 19.2822 157.278 19.3171 157.348 19.3756C157.438 19.4501 157.492 19.5522 157.51 19.6821L157.298 19.7141C157.286 19.6335 157.261 19.572 157.222 19.5294C157.184 19.4861 157.131 19.4577 157.065 19.444V20.0354C157.168 20.0612 157.236 20.0814 157.27 20.0958C157.334 20.1239 157.386 20.1581 157.426 20.1984C157.466 20.2386 157.497 20.2865 157.518 20.3419C157.54 20.3974 157.551 20.4574 157.551 20.522C157.551 20.6641 157.506 20.7826 157.416 20.8775C157.325 20.9725 157.208 21.0234 157.065 21.0302V21.2376H156.944ZM156.944 19.4417C156.864 19.4539 156.801 19.4858 156.755 19.5374C156.709 19.5891 156.686 19.6502 156.686 19.7209C156.686 19.7908 156.706 19.8493 156.744 19.8964C156.784 19.9435 156.85 19.9811 156.944 20.0092V19.4417ZM157.065 20.8593C157.144 20.8494 157.21 20.8149 157.262 20.7556C157.314 20.6964 157.34 20.623 157.34 20.5357C157.34 20.4612 157.322 20.4016 157.285 20.3568C157.248 20.3112 157.175 20.2705 157.065 20.2348V20.8593Z" fill="#F9B449"/>
</g>
<defs>
<linearGradient id="paint0_linear_10_1500" x1="52.6847" y1="347.361" x2="165.956" y2="347.361" gradientUnits="userSpaceOnUse">
<stop stop-color="#4B45BD"/>
<stop offset="1" stop-color="#58CAEA"/>
</linearGradient>
<linearGradient id="paint1_linear_10_1500" x1="106.582" y1="162.298" x2="174.137" y2="162.298" gradientUnits="userSpaceOnUse">
<stop offset="0.11" stop-color="#F87B58"/>
<stop offset="0.5" stop-color="#F8C548"/>
<stop offset="1" stop-color="#F89C51"/>
</linearGradient>
<linearGradient id="paint2_linear_10_1500" x1="106.681" y1="223.821" x2="212.297" y2="150.261" gradientUnits="userSpaceOnUse">
<stop stop-color="#4B45BD"/>
<stop offset="1" stop-color="#58CAEA"/>
</linearGradient>
<linearGradient id="paint3_linear_10_1500" x1="101.896" y1="177.083" x2="166.841" y2="177.083" gradientUnits="userSpaceOnUse">
<stop stop-color="#4B45BD"/>
<stop offset="1" stop-color="#58CAEA"/>
</linearGradient>
<linearGradient id="paint4_linear_10_1500" x1="431.734" y1="335.898" x2="499.63" y2="335.898" gradientUnits="userSpaceOnUse">
<stop stop-color="#4B45BD"/>
<stop offset="1" stop-color="#58CAEA"/>
</linearGradient>
<linearGradient id="paint5_linear_10_1500" x1="415.993" y1="181.161" x2="508.162" y2="181.161" gradientUnits="userSpaceOnUse">
<stop stop-color="#F87B58"/>
<stop offset="0.41" stop-color="#F89453"/>
<stop offset="0.71" stop-color="#F8C548"/>
<stop offset="1" stop-color="#F89C51"/>
</linearGradient>
<linearGradient id="paint6_linear_10_1500" x1="412.337" y1="214.04" x2="509.761" y2="214.04" gradientUnits="userSpaceOnUse">
<stop stop-color="#4B45BD"/>
<stop offset="1" stop-color="#58CAEA"/>
</linearGradient>
<linearGradient id="paint7_linear_10_1500" x1="448.665" y1="121.377" x2="481.096" y2="121.377" gradientUnits="userSpaceOnUse">
<stop stop-color="#4B45BD"/>
<stop offset="1" stop-color="#58CAEA"/>
</linearGradient>
<linearGradient id="paint8_linear_10_1500" x1="184.007" y1="83.3939" x2="142.299" y2="53.0669" gradientUnits="userSpaceOnUse">
<stop stop-color="#4B45BD"/>
<stop offset="1" stop-color="#58CAEA"/>
</linearGradient>
<linearGradient id="paint9_linear_10_1500" x1="156.767" y1="52.3681" x2="173.877" y2="26.8644" gradientUnits="userSpaceOnUse">
<stop stop-color="#4B45BD"/>
<stop offset="1" stop-color="#58CAEA"/>
</linearGradient>
<linearGradient id="paint10_linear_10_1500" x1="160.428" y1="34.954" x2="176.397" y2="34.954" gradientUnits="userSpaceOnUse">
<stop stop-color="#4B45BD"/>
<stop offset="1" stop-color="#58CAEA"/>
</linearGradient>
<linearGradient id="paint11_linear_10_1500" x1="152.229" y1="30.6552" x2="160.292" y2="18.6396" gradientUnits="userSpaceOnUse">
<stop stop-color="#4B45BD"/>
<stop offset="1" stop-color="#58CAEA"/>
</linearGradient>
<clipPath id="clip0_10_1500">
<rect width="604" height="453" fill="white" transform="translate(0 0.5)"/>
</clipPath>
</defs>
</svg>
