<svg width="208" height="19" viewBox="0 0 208 19" fill="none" xmlns="http://www.w3.org/2000/svg">
<path d="M8.60156 13.4453V15H2.5625V13.4453H8.60156ZM3.11719 3.625V15H1.15625V3.625H3.11719ZM7.8125 8.375V9.90625H2.5625V8.375H7.8125ZM8.5625 3.625V5.1875H2.5625V3.625H8.5625ZM11.4531 6.54688L13.0625 9.35156L14.7031 6.54688H16.7734L14.2109 10.6953L16.875 15H14.8047L13.0859 12.0781L11.3672 15H9.28906L11.9453 10.6953L9.39062 6.54688H11.4531ZM19.9531 8.17188V18.25H18.0703V6.54688H19.8047L19.9531 8.17188ZM25.4609 10.6953V10.8594C25.4609 11.474 25.388 12.0443 25.2422 12.5703C25.1016 13.0911 24.8906 13.5469 24.6094 13.9375C24.3333 14.3229 23.9922 14.6224 23.5859 14.8359C23.1797 15.0495 22.7109 15.1562 22.1797 15.1562C21.6536 15.1562 21.1927 15.0599 20.7969 14.8672C20.4062 14.6693 20.0755 14.3906 19.8047 14.0312C19.5339 13.6719 19.3151 13.25 19.1484 12.7656C18.987 12.276 18.8724 11.7396 18.8047 11.1562V10.5234C18.8724 9.90365 18.987 9.34115 19.1484 8.83594C19.3151 8.33073 19.5339 7.89583 19.8047 7.53125C20.0755 7.16667 20.4062 6.88542 20.7969 6.6875C21.1875 6.48958 21.6432 6.39062 22.1641 6.39062C22.6953 6.39062 23.1667 6.49479 23.5781 6.70312C23.9896 6.90625 24.3359 7.19792 24.6172 7.57812C24.8984 7.95312 25.1094 8.40625 25.25 8.9375C25.3906 9.46354 25.4609 10.0495 25.4609 10.6953ZM23.5781 10.8594V10.6953C23.5781 10.3047 23.5417 9.94271 23.4688 9.60938C23.3958 9.27083 23.2812 8.97396 23.125 8.71875C22.9688 8.46354 22.7682 8.26562 22.5234 8.125C22.2839 7.97917 21.9948 7.90625 21.6562 7.90625C21.3229 7.90625 21.0365 7.96354 20.7969 8.07812C20.5573 8.1875 20.3568 8.34115 20.1953 8.53906C20.0339 8.73698 19.9089 8.96875 19.8203 9.23438C19.7318 9.49479 19.6693 9.77865 19.6328 10.0859V11.6016C19.6953 11.9766 19.8021 12.3203 19.9531 12.6328C20.1042 12.9453 20.3177 13.1953 20.5938 13.3828C20.875 13.5651 21.2344 13.6562 21.6719 13.6562C22.0104 13.6562 22.2995 13.5833 22.5391 13.4375C22.7786 13.2917 22.974 13.0911 23.125 12.8359C23.2812 12.5755 23.3958 12.276 23.4688 11.9375C23.5417 11.599 23.5781 11.2396 23.5781 10.8594ZM30.7891 15.1562C30.1641 15.1562 29.599 15.0547 29.0938 14.8516C28.5938 14.6432 28.1667 14.3542 27.8125 13.9844C27.4635 13.6146 27.1953 13.1797 27.0078 12.6797C26.8203 12.1797 26.7266 11.6406 26.7266 11.0625V10.75C26.7266 10.0885 26.8229 9.48958 27.0156 8.95312C27.2083 8.41667 27.4766 7.95833 27.8203 7.57812C28.1641 7.19271 28.5703 6.89844 29.0391 6.69531C29.5078 6.49219 30.0156 6.39062 30.5625 6.39062C31.1667 6.39062 31.6953 6.49219 32.1484 6.69531C32.6016 6.89844 32.9766 7.1849 33.2734 7.55469C33.5755 7.91927 33.7995 8.35417 33.9453 8.85938C34.0964 9.36458 34.1719 9.92188 34.1719 10.5312V11.3359H27.6406V9.98438H32.3125V9.83594C32.3021 9.4974 32.2344 9.17969 32.1094 8.88281C31.9896 8.58594 31.8047 8.34635 31.5547 8.16406C31.3047 7.98177 30.9714 7.89062 30.5547 7.89062C30.2422 7.89062 29.9635 7.95833 29.7188 8.09375C29.4792 8.22396 29.2786 8.41406 29.1172 8.66406C28.9557 8.91406 28.8307 9.21615 28.7422 9.57031C28.6589 9.91927 28.6172 10.3125 28.6172 10.75V11.0625C28.6172 11.4323 28.6667 11.776 28.7656 12.0938C28.8698 12.4062 29.0208 12.6797 29.2188 12.9141C29.4167 13.1484 29.6562 13.3333 29.9375 13.4688C30.2188 13.599 30.5391 13.6641 30.8984 13.6641C31.3516 13.6641 31.7552 13.5729 32.1094 13.3906C32.4635 13.2083 32.7708 12.9505 33.0312 12.6172L34.0234 13.5781C33.8411 13.8438 33.6042 14.099 33.3125 14.3438C33.0208 14.5833 32.6641 14.7786 32.2422 14.9297C31.8255 15.0807 31.3411 15.1562 30.7891 15.1562ZM37.5078 8.35156V15H35.625V6.54688H37.3984L37.5078 8.35156ZM37.1719 10.4609L36.5625 10.4531C36.5677 9.85417 36.651 9.30469 36.8125 8.80469C36.9792 8.30469 37.2083 7.875 37.5 7.51562C37.7969 7.15625 38.151 6.88021 38.5625 6.6875C38.974 6.48958 39.4323 6.39062 39.9375 6.39062C40.3438 6.39062 40.7109 6.44792 41.0391 6.5625C41.3724 6.67188 41.6562 6.85156 41.8906 7.10156C42.1302 7.35156 42.3125 7.67708 42.4375 8.07812C42.5625 8.47396 42.625 8.96094 42.625 9.53906V15H40.7344V9.53125C40.7344 9.125 40.6745 8.80469 40.5547 8.57031C40.4401 8.33073 40.2708 8.16146 40.0469 8.0625C39.8281 7.95833 39.5547 7.90625 39.2266 7.90625C38.9036 7.90625 38.6146 7.97396 38.3594 8.10938C38.1042 8.24479 37.888 8.42969 37.7109 8.66406C37.5391 8.89844 37.4062 9.16927 37.3125 9.47656C37.2188 9.78385 37.1719 10.112 37.1719 10.4609ZM49.2891 12.7109C49.2891 12.5234 49.2422 12.3542 49.1484 12.2031C49.0547 12.0469 48.875 11.9062 48.6094 11.7812C48.349 11.6562 47.9635 11.5417 47.4531 11.4375C47.0052 11.3385 46.5938 11.2214 46.2188 11.0859C45.849 10.9453 45.5312 10.776 45.2656 10.5781C45 10.3802 44.7943 10.1458 44.6484 9.875C44.5026 9.60417 44.4297 9.29167 44.4297 8.9375C44.4297 8.59375 44.5052 8.26823 44.6562 7.96094C44.8073 7.65365 45.0234 7.38281 45.3047 7.14844C45.5859 6.91406 45.9271 6.72917 46.3281 6.59375C46.7344 6.45833 47.1875 6.39062 47.6875 6.39062C48.3958 6.39062 49.0026 6.51042 49.5078 6.75C50.0182 6.98438 50.4089 7.30469 50.6797 7.71094C50.9505 8.11198 51.0859 8.5651 51.0859 9.07031H49.2031C49.2031 8.84635 49.1458 8.63802 49.0312 8.44531C48.9219 8.2474 48.7552 8.08854 48.5312 7.96875C48.3073 7.84375 48.026 7.78125 47.6875 7.78125C47.3646 7.78125 47.0964 7.83333 46.8828 7.9375C46.6745 8.03646 46.5182 8.16667 46.4141 8.32812C46.3151 8.48958 46.2656 8.66667 46.2656 8.85938C46.2656 9 46.2917 9.1276 46.3438 9.24219C46.401 9.35156 46.4948 9.45312 46.625 9.54688C46.7552 9.63542 46.9323 9.71875 47.1562 9.79688C47.3854 9.875 47.6719 9.95052 48.0156 10.0234C48.6615 10.1589 49.2161 10.3333 49.6797 10.5469C50.1484 10.7552 50.5078 11.026 50.7578 11.3594C51.0078 11.6875 51.1328 12.1042 51.1328 12.6094C51.1328 12.9844 51.0521 13.3281 50.8906 13.6406C50.7344 13.9479 50.5052 14.2161 50.2031 14.4453C49.901 14.6693 49.5391 14.8438 49.1172 14.9688C48.7005 15.0938 48.2318 15.1562 47.7109 15.1562C46.9453 15.1562 46.2969 15.0208 45.7656 14.75C45.2344 14.474 44.8307 14.1224 44.5547 13.6953C44.2839 13.263 44.1484 12.8151 44.1484 12.3516H45.9688C45.9896 12.7005 46.0859 12.9792 46.2578 13.1875C46.4349 13.3906 46.6536 13.5391 46.9141 13.6328C47.1797 13.7214 47.4531 13.7656 47.7344 13.7656C48.0729 13.7656 48.3568 13.7214 48.5859 13.6328C48.8151 13.5391 48.9896 13.4141 49.1094 13.2578C49.2292 13.0964 49.2891 12.9141 49.2891 12.7109ZM56.5078 15.1562C55.8828 15.1562 55.3177 15.0547 54.8125 14.8516C54.3125 14.6432 53.8854 14.3542 53.5312 13.9844C53.1823 13.6146 52.9141 13.1797 52.7266 12.6797C52.5391 12.1797 52.4453 11.6406 52.4453 11.0625V10.75C52.4453 10.0885 52.5417 9.48958 52.7344 8.95312C52.9271 8.41667 53.1953 7.95833 53.5391 7.57812C53.8828 7.19271 54.2891 6.89844 54.7578 6.69531C55.2266 6.49219 55.7344 6.39062 56.2812 6.39062C56.8854 6.39062 57.4141 6.49219 57.8672 6.69531C58.3203 6.89844 58.6953 7.1849 58.9922 7.55469C59.2943 7.91927 59.5182 8.35417 59.6641 8.85938C59.8151 9.36458 59.8906 9.92188 59.8906 10.5312V11.3359H53.3594V9.98438H58.0312V9.83594C58.0208 9.4974 57.9531 9.17969 57.8281 8.88281C57.7083 8.58594 57.5234 8.34635 57.2734 8.16406C57.0234 7.98177 56.6901 7.89062 56.2734 7.89062C55.9609 7.89062 55.6823 7.95833 55.4375 8.09375C55.1979 8.22396 54.9974 8.41406 54.8359 8.66406C54.6745 8.91406 54.5495 9.21615 54.4609 9.57031C54.3776 9.91927 54.3359 10.3125 54.3359 10.75V11.0625C54.3359 11.4323 54.3854 11.776 54.4844 12.0938C54.5885 12.4062 54.7396 12.6797 54.9375 12.9141C55.1354 13.1484 55.375 13.3333 55.6562 13.4688C55.9375 13.599 56.2578 13.6641 56.6172 13.6641C57.0703 13.6641 57.474 13.5729 57.8281 13.3906C58.1823 13.2083 58.4896 12.9505 58.75 12.6172L59.7422 13.5781C59.5599 13.8438 59.3229 14.099 59.0312 14.3438C58.7396 14.5833 58.3828 14.7786 57.9609 14.9297C57.5443 15.0807 57.0599 15.1562 56.5078 15.1562Z" fill="#157AFE"/>
<path d="M66.2266 3.625V15H64.2812V3.625H66.2266ZM69.7969 3.625V5.1875H60.7422V3.625H69.7969ZM72.4375 8.15625V15H70.5547V6.54688H72.3516L72.4375 8.15625ZM75.0234 6.49219L75.0078 8.24219C74.8932 8.22135 74.7682 8.20573 74.6328 8.19531C74.5026 8.1849 74.3724 8.17969 74.2422 8.17969C73.9193 8.17969 73.6354 8.22656 73.3906 8.32031C73.1458 8.40885 72.9401 8.53906 72.7734 8.71094C72.612 8.8776 72.487 9.08073 72.3984 9.32031C72.3099 9.5599 72.2578 9.82812 72.2422 10.125L71.8125 10.1562C71.8125 9.625 71.8646 9.13281 71.9688 8.67969C72.0729 8.22656 72.2292 7.82812 72.4375 7.48438C72.651 7.14062 72.9167 6.8724 73.2344 6.67969C73.5573 6.48698 73.9297 6.39062 74.3516 6.39062C74.4661 6.39062 74.5885 6.40104 74.7188 6.42188C74.8542 6.44271 74.9557 6.46615 75.0234 6.49219ZM80.6875 13.3047V9.27344C80.6875 8.97135 80.6328 8.71094 80.5234 8.49219C80.4141 8.27344 80.2474 8.10417 80.0234 7.98438C79.8047 7.86458 79.5286 7.80469 79.1953 7.80469C78.888 7.80469 78.6224 7.85677 78.3984 7.96094C78.1745 8.0651 78 8.20573 77.875 8.38281C77.75 8.5599 77.6875 8.76042 77.6875 8.98438H75.8125C75.8125 8.65104 75.8932 8.32812 76.0547 8.01562C76.2161 7.70312 76.4505 7.42448 76.7578 7.17969C77.0651 6.9349 77.4323 6.74219 77.8594 6.60156C78.2865 6.46094 78.7656 6.39062 79.2969 6.39062C79.9323 6.39062 80.4948 6.4974 80.9844 6.71094C81.4792 6.92448 81.8672 7.2474 82.1484 7.67969C82.4349 8.10677 82.5781 8.64323 82.5781 9.28906V13.0469C82.5781 13.4323 82.6042 13.7786 82.6562 14.0859C82.7135 14.388 82.7943 14.651 82.8984 14.875V15H80.9688C80.8802 14.7969 80.8099 14.5391 80.7578 14.2266C80.7109 13.9089 80.6875 13.6016 80.6875 13.3047ZM80.9609 9.85938L80.9766 11.0234H79.625C79.276 11.0234 78.9688 11.0573 78.7031 11.125C78.4375 11.1875 78.2161 11.2812 78.0391 11.4062C77.862 11.5312 77.7292 11.6823 77.6406 11.8594C77.5521 12.0365 77.5078 12.237 77.5078 12.4609C77.5078 12.6849 77.5599 12.8906 77.6641 13.0781C77.7682 13.2604 77.9193 13.4036 78.1172 13.5078C78.3203 13.612 78.5651 13.6641 78.8516 13.6641C79.237 13.6641 79.5729 13.5859 79.8594 13.4297C80.151 13.2682 80.3802 13.0729 80.5469 12.8438C80.7135 12.6094 80.8021 12.388 80.8125 12.1797L81.4219 13.0156C81.3594 13.2292 81.2526 13.4583 81.1016 13.7031C80.9505 13.9479 80.7526 14.1823 80.5078 14.4062C80.2682 14.625 79.9792 14.8047 79.6406 14.9453C79.3073 15.0859 78.9219 15.1562 78.4844 15.1562C77.9323 15.1562 77.4401 15.0469 77.0078 14.8281C76.5755 14.6042 76.237 14.3047 75.9922 13.9297C75.7474 13.5495 75.625 13.1198 75.625 12.6406C75.625 12.1927 75.7083 11.7969 75.875 11.4531C76.0469 11.1042 76.2969 10.8125 76.625 10.5781C76.9583 10.3438 77.3646 10.1667 77.8438 10.0469C78.3229 9.92188 78.8698 9.85938 79.4844 9.85938H80.9609ZM88 13.6562C88.3073 13.6562 88.5833 13.5964 88.8281 13.4766C89.0781 13.3516 89.2786 13.1797 89.4297 12.9609C89.5859 12.7422 89.6719 12.4896 89.6875 12.2031H91.4609C91.4505 12.75 91.2891 13.2474 90.9766 13.6953C90.6641 14.1432 90.25 14.5 89.7344 14.7656C89.2188 15.026 88.6484 15.1562 88.0234 15.1562C87.3776 15.1562 86.8151 15.0469 86.3359 14.8281C85.8568 14.6042 85.4583 14.2969 85.1406 13.9062C84.8229 13.5156 84.5833 13.0651 84.4219 12.5547C84.2656 12.0443 84.1875 11.4974 84.1875 10.9141V10.6406C84.1875 10.0573 84.2656 9.51042 84.4219 9C84.5833 8.48438 84.8229 8.03125 85.1406 7.64062C85.4583 7.25 85.8568 6.94531 86.3359 6.72656C86.8151 6.5026 87.375 6.39062 88.0156 6.39062C88.6927 6.39062 89.2865 6.52604 89.7969 6.79688C90.3073 7.0625 90.7083 7.4349 91 7.91406C91.2969 8.38802 91.4505 8.9401 91.4609 9.57031H89.6875C89.6719 9.25781 89.5938 8.97656 89.4531 8.72656C89.3177 8.47135 89.125 8.26823 88.875 8.11719C88.6302 7.96615 88.3359 7.89062 87.9922 7.89062C87.612 7.89062 87.2969 7.96875 87.0469 8.125C86.7969 8.27604 86.6016 8.48438 86.4609 8.75C86.3203 9.01042 86.2188 9.30469 86.1562 9.63281C86.099 9.95573 86.0703 10.2917 86.0703 10.6406V10.9141C86.0703 11.263 86.099 11.6016 86.1562 11.9297C86.2135 12.2578 86.3125 12.5521 86.4531 12.8125C86.599 13.0677 86.7969 13.2734 87.0469 13.4297C87.2969 13.5807 87.6146 13.6562 88 13.6562ZM94.8047 3V15H92.9141V3H94.8047ZM100.055 6.54688L96.375 10.625L94.3594 12.6875L93.8672 11.0938L95.3906 9.21094L97.7812 6.54688H100.055ZM98.1875 15L95.4453 11.0312L96.6328 9.71094L100.367 15H98.1875ZM104.82 15.1562C104.195 15.1562 103.63 15.0547 103.125 14.8516C102.625 14.6432 102.198 14.3542 101.844 13.9844C101.495 13.6146 101.227 13.1797 101.039 12.6797C100.852 12.1797 100.758 11.6406 100.758 11.0625V10.75C100.758 10.0885 100.854 9.48958 101.047 8.95312C101.24 8.41667 101.508 7.95833 101.852 7.57812C102.195 7.19271 102.602 6.89844 103.07 6.69531C103.539 6.49219 104.047 6.39062 104.594 6.39062C105.198 6.39062 105.727 6.49219 106.18 6.69531C106.633 6.89844 107.008 7.1849 107.305 7.55469C107.607 7.91927 107.831 8.35417 107.977 8.85938C108.128 9.36458 108.203 9.92188 108.203 10.5312V11.3359H101.672V9.98438H106.344V9.83594C106.333 9.4974 106.266 9.17969 106.141 8.88281C106.021 8.58594 105.836 8.34635 105.586 8.16406C105.336 7.98177 105.003 7.89062 104.586 7.89062C104.273 7.89062 103.995 7.95833 103.75 8.09375C103.51 8.22396 103.31 8.41406 103.148 8.66406C102.987 8.91406 102.862 9.21615 102.773 9.57031C102.69 9.91927 102.648 10.3125 102.648 10.75V11.0625C102.648 11.4323 102.698 11.776 102.797 12.0938C102.901 12.4062 103.052 12.6797 103.25 12.9141C103.448 13.1484 103.688 13.3333 103.969 13.4688C104.25 13.599 104.57 13.6641 104.93 13.6641C105.383 13.6641 105.786 13.5729 106.141 13.3906C106.495 13.2083 106.802 12.9505 107.062 12.6172L108.055 13.5781C107.872 13.8438 107.635 14.099 107.344 14.3438C107.052 14.5833 106.695 14.7786 106.273 14.9297C105.857 15.0807 105.372 15.1562 104.82 15.1562ZM111.562 8.15625V15H109.68V6.54688H111.477L111.562 8.15625ZM114.148 6.49219L114.133 8.24219C114.018 8.22135 113.893 8.20573 113.758 8.19531C113.628 8.1849 113.497 8.17969 113.367 8.17969C113.044 8.17969 112.76 8.22656 112.516 8.32031C112.271 8.40885 112.065 8.53906 111.898 8.71094C111.737 8.8776 111.612 9.08073 111.523 9.32031C111.435 9.5599 111.383 9.82812 111.367 10.125L110.938 10.1562C110.938 9.625 110.99 9.13281 111.094 8.67969C111.198 8.22656 111.354 7.82812 111.562 7.48438C111.776 7.14062 112.042 6.8724 112.359 6.67969C112.682 6.48698 113.055 6.39062 113.477 6.39062C113.591 6.39062 113.714 6.40104 113.844 6.42188C113.979 6.44271 114.081 6.46615 114.148 6.49219Z" fill="#111111"/>
</svg>
