<svg width="602" height="426" viewBox="0 0 602 426" fill="none" xmlns="http://www.w3.org/2000/svg">
<g clip-path="url(#clip0_9_1047)">
<path d="M45.0325 148.605C44.7858 147.865 44.5391 147.124 44.4157 146.384C42.257 133.116 32.0799 58.4461 88.4544 33.33C116.21 20.9879 147.666 0.623437 249.436 38.2668C369.525 82.6984 448.043 7.41159 466.546 7.41159C485.05 7.41159 526.992 -19.741 576.335 33.33C625.678 86.401 588.67 150.58 588.67 150.58C588.67 150.58 565.232 211.056 572.634 241.911C580.035 272.767 588.67 297.451 586.203 307.324C583.736 317.198 582.503 383.845 541.794 398.656C501.086 413.466 514.656 410.998 419.67 406.061C324.685 401.124 275.342 414.701 255.604 422.106C235.867 429.511 206.261 427.043 153.217 391.251C100.173 355.459 87.8377 366.566 60.6989 350.522C33.5602 334.477 -35.3968 245.737 22.458 181.435C44.8475 156.628 45.5876 150.148 45.0325 148.605Z" fill="#F8F8FF"/>
<path d="M120.651 119.354C130.904 119.354 139.216 111.038 139.216 100.78C139.216 90.5209 130.904 82.2047 120.651 82.2047C110.398 82.2047 102.086 90.5209 102.086 100.78C102.086 111.038 110.398 119.354 120.651 119.354Z" fill="white"/>
<path d="M140.758 113.368C147.741 113.368 153.402 107.705 153.402 100.718C153.402 93.7311 147.741 88.0672 140.758 88.0672C133.775 88.0672 128.114 93.7311 128.114 100.718C128.114 107.705 133.775 113.368 140.758 113.368Z" fill="white"/>
<path d="M99.495 110.653C105.116 110.653 109.672 106.094 109.672 100.471C109.672 94.8475 105.116 90.2887 99.495 90.2887C93.8744 90.2887 89.318 94.8475 89.318 100.471C89.318 106.094 93.8744 110.653 99.495 110.653Z" fill="white"/>
<path d="M484.556 89.9185C494.81 89.9185 503.122 81.6022 503.122 71.3436C503.122 61.085 494.81 52.7688 484.556 52.7688C474.303 52.7688 465.991 61.085 465.991 71.3436C465.991 81.6022 474.303 89.9185 484.556 89.9185Z" fill="white"/>
<path d="M504.725 83.9326C511.709 83.9326 517.37 78.2687 517.37 71.2819C517.37 64.2952 511.709 58.6313 504.725 58.6313C497.742 58.6313 492.081 64.2952 492.081 71.2819C492.081 78.2687 497.742 83.9326 504.725 83.9326Z" fill="white"/>
<path d="M463.401 81.2173C469.021 81.2173 473.578 76.6586 473.578 71.0351C473.578 65.4116 469.021 60.8528 463.401 60.8528C457.78 60.8528 453.224 65.4116 453.224 71.0351C453.224 76.6586 457.78 81.2173 463.401 81.2173Z" fill="white"/>
<path d="M283.236 154.653C293.49 154.653 301.802 146.337 301.802 136.078C301.802 125.819 293.49 117.503 283.236 117.503C272.983 117.503 264.671 125.819 264.671 136.078C264.671 146.337 272.983 154.653 283.236 154.653Z" fill="white"/>
<path d="M315.018 140.819C317.691 134.364 314.627 126.963 308.175 124.289C301.724 121.615 294.327 124.681 291.654 131.136C288.982 137.591 292.046 144.991 298.498 147.665C304.949 150.339 312.346 147.274 315.018 140.819Z" fill="white"/>
<path d="M262.081 145.89C267.701 145.89 272.258 141.331 272.258 135.708C272.258 130.084 267.701 125.525 262.081 125.525C256.46 125.525 251.904 130.084 251.904 135.708C251.904 141.331 256.46 145.89 262.081 145.89Z" fill="white"/>
<path d="M14.4398 299.919C14.4398 299.919 26.1588 282.64 27.3923 280.172C28.6259 277.703 28.0091 267.83 28.0091 267.83H23.6916C23.6916 267.83 27.3923 257.339 37.8777 257.339C48.3632 257.339 51.4471 262.276 52.6807 264.744C53.9143 267.213 53.2975 268.447 53.2975 268.447H49.5967V278.321L67.4836 307.942H74.8851V356.076C74.8851 356.076 31.0931 333.243 14.4398 299.919Z" fill="#BAC6F2"/>
<path d="M55.7646 343.734H64.3997V331.392C64.3997 331.392 60.0822 324.603 55.7646 331.392V343.734Z" fill="white"/>
<path d="M58.4785 318.679C61.4762 318.679 63.9063 316.248 63.9063 313.249C63.9063 310.249 61.4762 307.818 58.4785 307.818C55.4809 307.818 53.0508 310.249 53.0508 313.249C53.0508 316.248 55.4809 318.679 58.4785 318.679Z" fill="#E9EDFA"/>
<path d="M18.0172 306.646C20.4843 304.918 23.8766 305.473 25.6037 307.942C27.3307 310.348 26.7756 313.681 24.4318 315.47" fill="#E9EDFA"/>
<path d="M38.988 293.933C41.9856 293.933 44.4157 291.502 44.4157 288.503C44.4157 285.504 41.9856 283.072 38.988 283.072C35.9903 283.072 33.5602 285.504 33.5602 288.503C33.5602 291.502 35.9903 293.933 38.988 293.933Z" fill="#E9EDFA"/>
<path d="M29.9212 308.867C29.9212 307.448 30.4763 306.09 31.3398 305.041C33.0668 302.881 35.6573 301.585 38.4329 301.462C44.169 301.339 46.6978 306.152 47.0679 308.127C47.623 311.089 47.4997 326.146 47.4997 326.146L34.0537 326.084L29.8595 321.641L29.9212 308.867Z" fill="white"/>
<path d="M73.4665 288.935L74.8851 356.137C74.8851 356.137 100.297 365.641 111.029 367.862C121.761 370.084 146.679 384.339 146.679 384.339L146.248 289.182L73.4665 288.688" fill="#E9EDFA"/>
<path d="M72.9731 288.935L146.309 289.243L146.001 271.717H124.29C124.29 271.717 121.576 261.227 111.461 261.227C99.0632 261.227 96.9662 272.273 96.9662 272.273L72.9114 272.026L72.9731 288.935Z" fill="#BAC6F2"/>
<path d="M93.6972 298.87H80.7446V312.94H93.6972V298.87Z" fill="#BAC6F2"/>
<path d="M117.135 298.685H104.183V312.755H117.135V298.685Z" fill="#BAC6F2"/>
<path d="M140.265 298.87H127.312V312.94H140.265V298.87Z" fill="white"/>
<path d="M140.45 325.344H127.497V339.414H140.45V325.344Z" fill="#BAC6F2"/>
<path d="M140.635 356.137H127.682V370.207H140.635V356.137Z" fill="#BAC6F2"/>
<path d="M116.58 324.974H103.627V339.044H116.58V324.974Z" fill="#BAC6F2"/>
<path d="M116.58 324.974H103.627V339.044H116.58V324.974Z" fill="white"/>
<path d="M93.7588 325.591H80.8063V339.661H93.7588V325.591Z" fill="#BAC6F2"/>
<path d="M81.1147 358.236L80.9913 354.101L93.5738 354.348L93.6355 362.617C93.6355 362.679 84.322 359.593 81.1147 358.236Z" fill="#BAC6F2"/>
<path d="M104.368 366.011L104.183 355.52L116.95 355.767L116.642 369.467L104.368 366.011Z" fill="#BAC6F2"/>
<path d="M110.782 281.9C114.734 281.9 117.937 278.695 117.937 274.741C117.937 270.788 114.734 267.583 110.782 267.583C106.831 267.583 103.627 270.788 103.627 274.741C103.627 278.695 106.831 281.9 110.782 281.9Z" fill="white"/>
<path d="M146.063 336.081L146.679 384.401C146.679 384.401 185.105 409.949 187.511 411.8C189.916 413.652 210.024 423.402 219.152 423.957L220.817 326.516L215.39 326.331L188.991 293.563L179.246 293.069L146.063 336.081Z" fill="#BAC6F2"/>
<path d="M146.063 336.082L179.307 294.304L182.947 294.427L187.141 294.674L189.485 294.921L215.451 326.331L220.817 326.516V324.665L215.636 324.418L190.78 293.995L190.903 282.27L178.876 281.653L178.444 293.686L146.494 309.052L146.063 336.082Z" fill="#E9EDFA"/>
<path d="M173.201 327.01H167.157V334.107H173.201V327.01Z" fill="white"/>
<path d="M199.847 327.072H193.802V334.168H199.847V327.072Z" fill="white"/>
<path d="M190.04 327.072H183.995V334.168H190.04V327.072Z" fill="white"/>
<path d="M182.021 327.01H175.977V334.107H182.021V327.01Z" fill="white"/>
<path d="M173.201 337.809H167.157V344.906H173.201V337.809Z" fill="white"/>
<path d="M199.847 337.871H193.802V344.968H199.847V337.871Z" fill="white"/>
<path d="M190.04 337.871H183.995V344.968H190.04V337.871Z" fill="white"/>
<path d="M182.021 337.809H175.977V344.906H182.021V337.809Z" fill="white"/>
<path d="M158.892 369.775H152.847V376.872H158.892V369.775Z" fill="white"/>
<path d="M166.725 361.63H160.68V368.726H166.725V361.63Z" fill="white"/>
<path d="M158.707 361.568H152.662V368.665H158.707V361.568Z" fill="white"/>
<path d="M166.787 369.837H160.742V376.934H166.787V369.837Z" fill="white"/>
<path d="M182.576 369.961H176.532V377.057H182.576V369.961Z" fill="white"/>
<path d="M190.41 361.815H184.365V368.911H190.41V361.815Z" fill="white"/>
<path d="M182.391 361.753H176.347V368.85H182.391V361.753Z" fill="white"/>
<path d="M190.471 370.022H184.427V377.119H190.471V370.022Z" fill="white"/>
<path d="M205.459 370.146H199.415V377.242H205.459V370.146Z" fill="white"/>
<path d="M213.293 362H207.248V369.097H213.293V362Z" fill="white"/>
<path d="M205.274 362H199.23V369.097H205.274V362Z" fill="white"/>
<path d="M213.416 370.269H207.371V377.366H213.416V370.269Z" fill="white"/>
<path d="M205.151 404.704H199.106V414.762H205.151V404.704Z" fill="white"/>
<path d="M212.984 396.558H206.94V403.654H212.984V396.558Z" fill="white"/>
<path d="M204.966 396.496H198.921V403.593H204.966V396.496Z" fill="white"/>
<path d="M189.238 396.373H183.193V403.469H189.238V396.373Z" fill="white"/>
<path d="M189.299 412.849L183.255 408.9L183.193 405.012H189.238L189.299 412.849Z" fill="white"/>
<path d="M181.22 396.311H175.175V403.408H181.22V396.311Z" fill="white"/>
<path d="M181.158 407.419L179.616 406.37L177.087 404.704H181.158V407.419Z" fill="white"/>
<path d="M213.108 404.765H207.063V414.824H213.108V404.765Z" fill="white"/>
<path d="M252.15 262.152H263.499L263.314 256.598L251.965 256.475L252.15 262.152Z" fill="#BAC6F2"/>
<path d="M220.324 314.298L219.214 423.957C219.214 423.957 238.766 426.981 256.406 422.538C274.046 418.095 294.4 413.281 294.4 413.281L295.079 315.347L283.236 309.546L263.993 275.42L263.499 262.091H252.089L251.719 275.42L231.488 308.867L220.324 314.298Z" fill="#E9EDFA"/>
<path d="M257.085 323.678H249.621V332.996H257.085V323.678Z" fill="#BAC6F2"/>
<path d="M267.693 323.863H259.737V332.996H267.693V323.863Z" fill="#BAC6F2"/>
<path d="M256.9 334.724H249.436V344.042H256.9V334.724Z" fill="#BAC6F2"/>
<path d="M267.508 334.909H259.552V344.042H267.508V334.909Z" fill="#BAC6F2"/>
<path d="M257.208 356.94H249.745V366.258H257.208V356.94Z" fill="#BAC6F2"/>
<path d="M239.63 356.878H232.166V366.196H239.63V356.878Z" fill="#BAC6F2"/>
<path d="M283.792 357.248H276.328V366.566H283.792V357.248Z" fill="#BAC6F2"/>
<path d="M284.038 398.286H276.575V407.604H284.038V398.286Z" fill="#BAC6F2"/>
<path d="M239.691 398.533H232.228V407.851H239.691V398.533Z" fill="#BAC6F2"/>
<path d="M267.878 357.063H259.922V366.196H267.878V357.063Z" fill="#BAC6F2"/>
<path d="M257.023 367.986H249.56V377.304H257.023V367.986Z" fill="#BAC6F2"/>
<path d="M267.693 368.109H259.737V377.242H267.693V368.109Z" fill="#BAC6F2"/>
<path d="M257.085 397.237H249.621V406.555H257.085V397.237Z" fill="#BAC6F2"/>
<path d="M267.693 397.422H259.737V406.555H267.693V397.422Z" fill="#BAC6F2"/>
<path d="M256.9 408.283H249.436V417.601H256.9V408.283Z" fill="#BAC6F2"/>
<path d="M267.57 408.468H259.613V417.601H267.57V408.468Z" fill="#BAC6F2"/>
<path d="M236.299 339.29C239.194 339.29 241.542 336.942 241.542 334.045C241.542 331.148 239.194 328.8 236.299 328.8C233.403 328.8 231.056 331.148 231.056 334.045C231.056 336.942 233.403 339.29 236.299 339.29Z" fill="#BAC6F2"/>
<path d="M278.672 340.463C281.568 340.463 283.915 338.115 283.915 335.218C283.915 332.321 281.568 329.972 278.672 329.972C275.777 329.972 273.43 332.321 273.43 335.218C273.43 338.115 275.777 340.463 278.672 340.463Z" fill="#BAC6F2"/>
<path d="M220.324 314.298H231.735L231.55 308.744L220.139 308.62L220.324 314.298Z" fill="#BAC6F2"/>
<path d="M283.668 315.347H295.079L294.894 309.793L283.483 309.669L283.668 315.347Z" fill="#BAC6F2"/>
<path d="M258.257 311.644C263.23 311.644 267.262 307.61 267.262 302.634C267.262 297.659 263.23 293.625 258.257 293.625C253.283 293.625 249.251 297.659 249.251 302.634C249.251 307.61 253.283 311.644 258.257 311.644Z" fill="#BAC6F2"/>
<path d="M290.391 315.779L291.07 363.111C291.07 363.111 292.797 413.837 292.982 413.652C297.053 409.455 359.657 405.197 366.873 405.012L365.208 306.275L359.78 306.09L333.32 273.26L323.574 272.767L290.391 315.779Z" fill="#BAC6F2"/>
<path d="M290.391 315.779L323.574 274.062L327.275 274.186L331.469 274.433L333.752 274.68L359.718 306.029L365.146 306.275V304.362L359.965 304.177L335.047 273.754L335.232 261.967L323.204 261.35L322.711 273.384L290.391 309.731V315.779Z" fill="#E9EDFA"/>
<path d="M317.53 306.769H311.485V313.866H317.53V306.769Z" fill="white"/>
<path d="M344.175 306.831H338.131V313.927H344.175V306.831Z" fill="white"/>
<path d="M334.368 306.769H328.324V313.866H334.368V306.769Z" fill="white"/>
<path d="M326.35 306.707H320.306V313.804H326.35V306.707Z" fill="white"/>
<path d="M317.53 317.568H311.485V324.665H317.53V317.568Z" fill="white"/>
<path d="M344.175 317.63H338.131V324.727H344.175V317.63Z" fill="white"/>
<path d="M334.368 317.568H328.324V324.665H334.368V317.568Z" fill="white"/>
<path d="M326.35 317.568H320.306V324.665H326.35V317.568Z" fill="white"/>
<path d="M303.344 354.595H297.299V361.691H303.344V354.595Z" fill="white"/>
<path d="M311.177 346.449H305.132V353.546H311.177V346.449Z" fill="white"/>
<path d="M303.159 346.387H297.114V353.484H303.159V346.387Z" fill="white"/>
<path d="M311.239 354.656H305.194V361.753H311.239V354.656Z" fill="white"/>
<path d="M326.967 354.718H320.922V361.815H326.967V354.718Z" fill="white"/>
<path d="M334.862 346.634H328.817V353.731H334.862V346.634Z" fill="white"/>
<path d="M326.782 346.572H320.737V353.669H326.782V346.572Z" fill="white"/>
<path d="M334.923 354.842H328.879V361.938H334.923V354.842Z" fill="white"/>
<path d="M349.911 354.965H343.867V362.062H349.911V354.965Z" fill="white"/>
<path d="M357.745 346.819H351.7V353.916H357.745V346.819Z" fill="white"/>
<path d="M349.726 346.819H343.682V353.916H349.726V346.819Z" fill="white"/>
<path d="M357.806 355.027H351.762V362.123H357.806V355.027Z" fill="white"/>
<path d="M303.467 385.573H297.423V392.67H303.467V385.573Z" fill="white"/>
<path d="M311.3 377.428H305.256V384.524H311.3V377.428Z" fill="white"/>
<path d="M303.282 377.428H297.238V384.524H303.282V377.428Z" fill="white"/>
<path d="M311.424 385.635H305.379V392.732H311.424V385.635Z" fill="white"/>
<path d="M327.152 385.758H321.107V392.855H327.152V385.758Z" fill="white"/>
<path d="M334.985 377.613H328.941V384.709H334.985V377.613Z" fill="white"/>
<path d="M326.967 377.551H320.922V384.648H326.967V377.551Z" fill="white"/>
<path d="M335.108 385.82H329.064V392.917H335.108V385.82Z" fill="white"/>
<path d="M350.096 386.005H344.052V393.102H350.096V386.005Z" fill="white"/>
<path d="M357.93 377.86H351.885V384.956H357.93V377.86Z" fill="white"/>
<path d="M349.911 377.798H343.867V384.895H349.911V377.798Z" fill="white"/>
<path d="M357.991 386.067H351.947V393.164H357.991V386.067Z" fill="white"/>
<path d="M372.177 293.254C372.177 293.254 388.152 267.83 389.386 265.361C390.619 262.893 390.003 253.019 390.003 253.019H385.685C385.685 253.019 389.386 242.528 399.871 242.528C410.357 242.528 413.441 247.465 414.674 249.934C415.908 252.402 415.291 253.636 415.291 253.636H411.59V263.51L429.477 293.131H436.879L439.284 407.234C439.284 407.234 368.908 403.963 367.428 404.95C366.935 405.259 366.996 402.05 366.935 401.495C366.626 399.088 363.974 311.829 365.331 293.378C365.331 293.378 372.239 293.254 372.177 293.254Z" fill="#E9EDFA"/>
<path d="M417.45 329.232H426.085V316.89C426.085 316.89 421.767 310.101 417.45 316.89V329.232Z" fill="white"/>
<path d="M376.002 330.219H384.637V317.877C384.637 317.877 380.319 311.089 376.002 317.877V330.219Z" fill="white"/>
<path d="M376.002 362.123H384.637V349.781C384.637 349.781 380.319 342.993 376.002 349.781V362.123Z" fill="white"/>
<path d="M396.602 362.494H405.237V350.151C405.237 350.151 400.92 343.363 396.602 350.151V362.494Z" fill="white"/>
<path d="M417.203 362.864H425.838V350.522C425.838 350.522 421.521 343.734 417.203 350.522V362.864Z" fill="white"/>
<path d="M376.495 392.608H385.13V380.266C385.13 380.266 380.813 373.478 376.495 380.266V392.608Z" fill="white"/>
<path d="M397.157 392.979H405.792V380.636C405.792 380.636 401.475 373.848 397.157 380.636V392.979Z" fill="white"/>
<path d="M417.758 393.349H426.393V381.007C426.393 381.007 422.076 374.219 417.758 381.007V393.349Z" fill="white"/>
<path d="M420.164 304.116C423.161 304.116 425.591 301.684 425.591 298.685C425.591 295.686 423.161 293.254 420.164 293.254C417.166 293.254 414.736 295.686 414.736 298.685C414.736 301.684 417.166 304.116 420.164 304.116Z" fill="#E9EDFA"/>
<path d="M381.183 303.313C384.18 303.313 386.61 300.882 386.61 297.883C386.61 294.884 384.18 292.452 381.183 292.452C378.185 292.452 375.755 294.884 375.755 297.883C375.755 300.882 378.185 303.313 381.183 303.313Z" fill="#E9EDFA"/>
<path d="M401.105 330.219C404.103 330.219 406.533 327.788 406.533 324.789C406.533 321.789 404.103 319.358 401.105 319.358C398.107 319.358 395.677 321.789 395.677 324.789C395.677 327.788 398.107 330.219 401.105 330.219Z" fill="#E9EDFA"/>
<path d="M400.673 279.431C403.671 279.431 406.101 277 406.101 274.001C406.101 271.002 403.671 268.57 400.673 268.57C397.675 268.57 395.245 271.002 395.245 274.001C395.245 277 397.675 279.431 400.673 279.431Z" fill="#E9EDFA"/>
<path d="M391.606 294.304C391.606 292.884 392.161 291.527 393.025 290.477C394.752 288.318 397.342 287.022 400.056 286.898C405.792 286.775 408.321 291.588 408.63 293.563C409.185 296.525 409.061 311.582 409.061 311.582H391.36L391.483 307.139L391.606 294.304Z" fill="white"/>
<path d="M437.187 314.73L439.037 407.419C439.037 407.419 459.33 407.604 471.789 409.147C482.644 410.504 508.796 409.27 508.796 409.27L510.03 315.038L437.249 314.545" fill="#BAC6F2"/>
<path d="M436.694 314.73L510.03 315.038L509.721 297.512H488.01C488.01 297.512 485.297 287.022 475.181 287.022C462.784 287.022 460.687 298.068 460.687 298.068L436.632 297.821L436.694 314.73Z" fill="#BAC6F2"/>
<path d="M457.356 324.665H444.403V338.735H457.356V324.665Z" fill="white"/>
<path d="M480.794 324.48H467.841V338.55H480.794V324.48Z" fill="white"/>
<path d="M503.924 324.665H490.971V338.735H503.924V324.665Z" fill="white"/>
<path d="M504.109 351.139H491.156V365.209H504.109V351.139Z" fill="white"/>
<path d="M504.294 381.932H491.341V396.002H504.294V381.932Z" fill="white"/>
<path d="M480.794 381.377H467.841V395.447H480.794V381.377Z" fill="white"/>
<path d="M457.356 381.068H444.403V395.138H457.356V381.068Z" fill="white"/>
<path d="M480.301 350.707H467.348V364.777H480.301V350.707Z" fill="white"/>
<path d="M480.301 350.707H467.348V364.777H480.301V350.707Z" fill="white"/>
<path d="M457.479 351.324H444.527V365.394H457.479V351.324Z" fill="white"/>
<path d="M474.441 307.695C478.393 307.695 481.596 304.49 481.596 300.536C481.596 296.583 478.393 293.378 474.441 293.378C470.49 293.378 467.286 296.583 467.286 300.536C467.286 304.49 470.49 307.695 474.441 307.695Z" fill="white"/>
<path d="M541.486 235.308H552.835L552.712 229.754L541.301 229.569L541.486 235.308Z" fill="white"/>
<path d="M509.66 287.454L508.303 409.394C508.303 409.394 532.666 403.222 548.147 395.57C562.765 388.289 569.735 372.306 571.4 369.22C571.585 368.911 571.709 368.541 571.832 368.171L580.282 342.993C580.529 342.314 580.714 341.574 580.776 340.895L584.661 316.087L586.512 304.733C586.635 304.054 586.635 303.313 586.512 302.634L584.476 289.12C584.415 288.811 584.23 288.564 583.983 288.379L572.572 282.764L553.328 248.576L552.835 235.247H541.424L541.054 248.576L520.824 282.023L509.66 287.454Z" fill="#E9EDFA"/>
<path d="M546.42 296.834H538.957V306.152H546.42V296.834Z" fill="white"/>
<path d="M557.029 297.019H549.073V306.152H557.029V297.019Z" fill="white"/>
<path d="M546.235 307.88H538.772V317.198H546.235V307.88Z" fill="white"/>
<path d="M556.844 308.065H548.888V317.198H556.844V308.065Z" fill="white"/>
<path d="M546.544 330.034H539.081V339.352H546.544V330.034Z" fill="white"/>
<path d="M528.965 330.034H521.502V339.352H528.965V330.034Z" fill="white"/>
<path d="M573.189 330.404H565.726V339.722H573.189V330.404Z" fill="white"/>
<path d="M568.131 375.638L565.849 378.909L566.158 370.701L570.66 370.516L568.131 375.638Z" fill="white"/>
<path d="M529.027 371.688H521.564V381.007H529.027V371.688Z" fill="white"/>
<path d="M557.214 330.219H549.258V339.352H557.214V330.219Z" fill="white"/>
<path d="M546.42 341.142H538.957V350.46H546.42V341.142Z" fill="white"/>
<path d="M557.029 341.265H549.073V350.398H557.029V341.265Z" fill="white"/>
<path d="M546.42 370.393H538.957V379.711H546.42V370.393Z" fill="white"/>
<path d="M557.029 370.578H549.073V379.711H557.029V370.578Z" fill="white"/>
<path d="M546.297 381.439H538.834V390.757H546.297V381.439Z" fill="white"/>
<path d="M556.289 390.078L555.426 390.757H548.949V381.624H556.906V389.523L556.289 390.078Z" fill="white"/>
<path d="M525.635 312.446C528.53 312.446 530.877 310.098 530.877 307.201C530.877 304.304 528.53 301.956 525.635 301.956C522.739 301.956 520.392 304.304 520.392 307.201C520.392 310.098 522.739 312.446 525.635 312.446Z" fill="white"/>
<path d="M568.008 313.619C570.904 313.619 573.251 311.27 573.251 308.374C573.251 305.477 570.904 303.128 568.008 303.128C565.113 303.128 562.765 305.477 562.765 308.374C562.765 311.27 565.113 313.619 568.008 313.619Z" fill="white"/>
<path d="M509.66 287.454H521.07L520.885 281.9L509.475 281.776L509.66 287.454Z" fill="white"/>
<path d="M573.066 288.503H584.415L583.674 284.985L583.181 282.887L572.881 282.825L573.066 288.503Z" fill="white"/>
<path d="M547.592 284.8C552.566 284.8 556.597 280.766 556.597 275.79C556.597 270.814 552.566 266.781 547.592 266.781C542.619 266.781 538.587 270.814 538.587 275.79C538.587 280.766 542.619 284.8 547.592 284.8Z" fill="white"/>
<path d="M302.974 409.27C304.639 408.159 306.674 406.74 311.547 405.753C315.556 405.012 317.962 398.533 317.962 398.533H327.337C327.337 398.533 328.2 409.27 327.769 410.134C327.337 410.998 327.09 411.924 324.931 412.602C322.773 413.281 303.776 413.034 302.912 412.849C302.172 412.664 299.828 411.368 302.974 409.27Z" fill="#4B49BB"/>
<path d="M412.145 306.029C413.379 307.942 418.93 326.578 418.992 327.504C419.053 328.429 418.56 331.083 415.661 328.615C414.119 327.257 412.145 325.776 409.802 321.209C407.89 317.507 401.167 317.075 401.167 317.075L398.268 307.942C398.268 307.942 408.013 303.869 409 303.992C409.987 304.115 410.85 304.115 412.145 306.029Z" fill="#4B49BB"/>
<path d="M350.343 272.211C350.59 272.273 350.898 274.063 350.96 274.309C352.317 278.876 365.393 319.605 365.393 321.333C365.393 323.061 393.395 310.101 397.898 308.065C398.268 307.88 398.638 308.065 398.823 308.374C399.748 310.348 402.338 316.211 401.413 316.89C400.241 317.692 370.82 339.229 368.415 339.846C366.01 340.463 362.37 343.549 356.388 336.143C351.207 329.787 336.774 305.72 332.765 298.994C332.58 298.685 332.148 298.562 331.839 298.747C331.654 298.87 331.531 299.055 331.469 299.302C330.729 305.782 330.421 330.898 328.324 337.624C326.227 344.351 329.249 351.571 329.249 361.445L327.522 397.792C327.522 398.162 327.214 398.471 326.843 398.471L318.702 398.656C318.332 398.656 318.023 398.409 317.962 398.039C317.407 392.176 312.041 348.239 311.547 341.389C310.93 333.983 307.476 271.841 308.401 268.077C309.142 265.732 345.902 271.471 350.343 272.211Z" fill="url(#paint0_linear_9_1047)"/>
<path d="M347.321 162.799C347.321 162.799 345.285 154.406 343.62 154.406C341.955 154.406 332.148 155.64 330.914 161.564C329.681 167.489 325.178 170.821 325.178 177.979C325.178 185.138 322.279 188.47 322.279 188.47C322.279 188.47 319.01 177.918 316.605 173.351C314.199 168.784 309.943 165.884 309.943 162.799C309.943 159.713 313.583 124.661 313.829 123.736C314.076 122.81 315.063 117.256 312.904 114.109C312.904 114.109 306.428 108.617 305.564 106.395C304.886 104.544 302.789 103.495 301.617 105.655C300.445 107.815 305.379 113.677 306.243 116.022C306.983 118.244 307.476 120.527 307.723 122.872C307.723 123.489 308.957 132.807 308.957 137.436C308.957 142.064 306.243 156.689 306.243 161.317C306.243 165.946 316.235 184.521 317.16 187.976C318.085 191.432 347.136 223.954 347.753 224.879C348.369 225.805 351.392 232.963 351.392 235.432C351.392 237.9 351.392 245.984 350.158 244.441C348.925 242.899 343.99 230.557 343.065 229.014C342.14 227.471 334.985 225.99 331.654 225.064C328.324 224.139 323.328 225.99 323.945 228.15C324.561 230.31 334.368 234.383 337.452 235.185C339.426 235.679 348.061 245.429 348.616 248.206C349.171 250.983 357.128 246.972 357.128 242.96C357.128 238.949 356.203 218.461 355.031 215.684C353.859 212.907 348.369 200.812 345.347 194.579C342.325 188.347 348.986 185.261 350.158 180.941C351.453 176.622 347.321 162.799 347.321 162.799Z" fill="url(#paint1_linear_9_1047)"/>
<path d="M321.354 182.608C321.354 182.608 313.459 168.106 312.719 164.465C311.917 160.824 313.953 123.612 313.953 123.612L307.785 122.687C307.785 122.687 301.925 157.183 301.185 161.194C300.445 165.205 303.22 173.845 305.934 178.72C308.648 183.595 316.111 204.021 316.111 206.428C316.111 208.835 315.618 231.729 314.446 236.172C313.212 240.615 308.34 268.2 308.34 268.2L350.467 272.273C350.467 272.273 348.616 260.239 348.74 256.228C349.048 247.404 351.392 240.862 345.1 236.728C340.906 234.012 336.897 235.308 332.395 233.025C327.152 230.371 325.98 228.212 325.672 226.731C325.487 225.867 326.843 223.892 334.923 226.977C337.637 228.026 343.127 227.965 343.25 231.544C343.312 234.568 339.549 241.109 344.114 244.071C344.114 244.071 349.356 256.722 354.229 258.697C358.423 260.363 363.419 255.796 363.296 249.81C363.172 242.652 362.741 228.952 359.595 222.966C356.388 216.98 347.691 201.614 346.149 200.38C344.607 199.146 339.858 205.008 334.307 204.206C328.756 203.404 326.473 200.75 325.302 197.973C324.006 195.197 321.354 182.608 321.354 182.608Z" fill="url(#paint2_linear_9_1047)"/>
<path d="M338.933 156.257C336.465 160.33 333.258 163.848 329.557 166.748C323.204 171.808 329.496 185.878 329.804 192.913C330.051 198.529 326.782 206.304 318.887 211.55C313.212 215.376 317.222 224.015 317.222 228.335C317.222 232.655 308.093 222.226 307.723 217.289C307.291 211.18 308.833 206.86 313.027 201.923C316.913 197.295 321.539 179.954 322.773 171.747C322.896 170.883 322.958 170.08 322.896 169.216C322.773 166.316 323.143 157.121 331.223 151.937C340.845 145.766 346.889 151.444 350.775 154.838C355.524 158.972 357.436 170.512 356.264 188.408C355.031 206.304 358.053 216.487 360.088 221.67C364.776 233.457 352.008 225.188 349.665 218.4C346.642 209.698 344.545 209.02 340.289 202.231C338.624 199.578 340.845 190.568 342.695 186.804C346.272 179.522 348.308 176.498 348.308 171.561C348.308 166.625 342.51 158.109 338.933 156.257Z" fill="url(#paint3_linear_9_1047)"/>
<path opacity="0.07" d="M337.082 188.223C337.082 188.223 330.297 188.655 328.447 184.212C328.262 183.718 329.557 197.788 329.866 195.937C330.297 194.024 337.082 188.223 337.082 188.223Z" fill="black"/>
<path opacity="0.07" d="M349.048 220.745C349.048 220.745 350.59 230.742 351.453 235.308C351.947 237.777 352.255 240.245 352.317 242.775C352.317 242.775 346.519 235.37 344.669 232.408C343.497 230.557 347.012 231.482 347.321 224.694C347.629 217.906 347.568 213.525 347.568 213.525L349.048 220.745Z" fill="black"/>
<path opacity="0.07" d="M348.554 252.896C348.554 252.896 343.373 247.712 343.127 244.997C342.818 241.418 340.351 241.603 340.351 243.824C340.351 246.046 344.175 262.646 341.831 267.027C339.488 271.409 337.637 271.347 337.637 271.347L350.281 272.273L348.554 252.896Z" fill="black"/>
<path opacity="0.07" d="M337.699 271.286C337.699 271.286 336.959 284.492 341.523 288.873C350.837 297.821 345.347 309.546 349.541 314.668C353.057 318.926 353.921 331.206 362.309 333.922C365.64 335.032 377.544 327.565 379.949 326.702C385.068 324.912 388.646 314.853 404.621 309.669C408.321 308.435 394.814 309.731 394.814 309.731L365.454 322.197L350.281 272.273L337.699 271.286Z" fill="black"/>
<path d="M277.439 89.2397L283.668 88.8077C283.668 88.8077 284.902 81.3407 289.898 78.8106V70.4797C289.898 70.4797 295.696 73.812 296.991 74.244C298.286 74.676 309.45 69.2455 322.341 77.1444C333.196 83.8091 330.791 95.4724 329.742 98.9899C329.557 99.607 329.249 100.224 328.879 100.78C327.954 102.014 326.165 104.544 325.24 105.408C324.006 106.642 326.042 113.615 324.438 114.109C323.204 114.541 320.676 109.11 319.442 109.542C312.781 111.764 305.503 112.011 298.656 110.221C298.224 110.098 297.731 110.283 297.484 110.777C296.929 111.887 295.819 114.047 294.894 114.603C293.66 115.405 293.66 110.036 292.427 109.172C291.193 108.308 277.439 96.2746 277.439 96.2746V89.2397Z" fill="url(#paint4_linear_9_1047)"/>
<path d="M329.619 90.5356C329.619 90.5356 334.738 86.8947 337.452 89.6099C340.166 92.3252 339.734 95.1021 337.576 95.781C335.972 96.2746 333.381 93.5594 334.492 91.7698C335.602 90.0419 337.514 89.0545 339.734 90.5356C341.955 92.0166 342.942 94.9787 343.065 96.6449" stroke="#4B45BD" stroke-width="1.14092" stroke-miterlimit="10" stroke-linecap="round"/>
<path d="M290.761 92.14C292.056 92.14 293.105 91.0901 293.105 89.795C293.105 88.4999 292.056 87.45 290.761 87.45C289.467 87.45 288.417 88.4999 288.417 89.795C288.417 91.0901 289.467 92.14 290.761 92.14Z" fill="#58CAEA"/>
<path d="M300.198 75.7251C300.198 75.7251 309.512 73.2567 315.556 75.9719" stroke="#4B45BD" stroke-width="0.28523" stroke-linecap="round" stroke-linejoin="round"/>
<path d="M308.093 66.5302C313.237 66.5302 317.407 62.3583 317.407 57.2119C317.407 52.0656 313.237 47.8937 308.093 47.8937C302.949 47.8937 298.78 52.0656 298.78 57.2119C298.78 62.3583 302.949 66.5302 308.093 66.5302Z" fill="url(#paint5_linear_9_1047)"/>
<path d="M307.97 64.8023C312.16 64.8023 315.556 61.404 315.556 57.2119C315.556 53.0199 312.16 49.6216 307.97 49.6216C303.78 49.6216 300.383 53.0199 300.383 57.2119C300.383 61.404 303.78 64.8023 307.97 64.8023Z" stroke="url(#paint6_linear_9_1047)" stroke-width="0.28523" stroke-miterlimit="10"/>
<path d="M306.304 56.2752V52.1264H306.57V56.2752H306.304ZM307.198 53.3711C307.179 53.2068 307.1 53.0793 306.962 52.9886C306.823 52.8978 306.654 52.8525 306.453 52.8525C306.306 52.8525 306.177 52.8762 306.067 52.9238C305.958 52.9713 305.873 53.0367 305.811 53.1199C305.751 53.2031 305.72 53.2976 305.72 53.4035C305.72 53.4921 305.741 53.5682 305.784 53.632C305.827 53.6946 305.882 53.747 305.949 53.7892C306.016 53.8302 306.086 53.8643 306.159 53.8913C306.233 53.9172 306.3 53.9383 306.362 53.9545L306.699 54.0452C306.786 54.0679 306.882 54.0993 306.988 54.1392C307.095 54.1792 307.197 54.2338 307.294 54.3029C307.392 54.371 307.473 54.4585 307.537 54.5655C307.601 54.6724 307.633 54.8037 307.633 54.9593C307.633 55.1386 307.586 55.3007 307.492 55.4455C307.399 55.5902 307.263 55.7053 307.083 55.7906C306.905 55.876 306.688 55.9187 306.433 55.9187C306.196 55.9187 305.99 55.8803 305.816 55.8036C305.643 55.7269 305.507 55.6199 305.408 55.4827C305.309 55.3455 305.254 55.1862 305.241 55.0046H305.655C305.666 55.13 305.708 55.2337 305.782 55.3158C305.856 55.3968 305.95 55.4573 306.064 55.4973C306.178 55.5362 306.302 55.5557 306.433 55.5557C306.587 55.5557 306.725 55.5308 306.847 55.4811C306.969 55.4303 307.065 55.3601 307.137 55.2704C307.208 55.1797 307.244 55.0738 307.244 54.9528C307.244 54.8426 307.213 54.7529 307.151 54.6838C307.09 54.6146 307.009 54.5584 306.908 54.5152C306.808 54.472 306.699 54.4342 306.582 54.4018L306.174 54.2851C305.915 54.2105 305.709 54.1041 305.558 53.9658C305.407 53.8275 305.331 53.6466 305.331 53.4229C305.331 53.2371 305.382 53.075 305.482 52.9367C305.584 52.7974 305.72 52.6893 305.89 52.6126C306.062 52.5348 306.254 52.4959 306.466 52.4959C306.68 52.4959 306.87 52.5343 307.036 52.611C307.203 52.6866 307.334 52.7903 307.432 52.9221C307.53 53.054 307.582 53.2036 307.587 53.3711H307.198Z" fill="#58CAEA"/>
<path d="M318.887 46.3509C322.259 46.3509 324.993 43.6156 324.993 40.2416C324.993 36.8675 322.259 34.1322 318.887 34.1322C315.515 34.1322 312.781 36.8675 312.781 40.2416C312.781 43.6156 315.515 46.3509 318.887 46.3509Z" fill="url(#paint7_linear_9_1047)"/>
<path d="M318.825 45.3635C321.619 45.3635 323.883 43.098 323.883 40.3033C323.883 37.5086 321.619 35.243 318.825 35.243C316.032 35.243 313.768 37.5086 313.768 40.3033C313.768 43.098 316.032 45.3635 318.825 45.3635Z" stroke="url(#paint8_linear_9_1047)" stroke-width="0.28523" stroke-miterlimit="10"/>
<path d="M318.175 38.1173V33.9685H318.44V38.1173H318.175ZM319.069 35.2132C319.05 35.0489 318.971 34.9215 318.832 34.8307C318.694 34.7399 318.525 34.6946 318.324 34.6946C318.177 34.6946 318.048 34.7183 317.938 34.7659C317.829 34.8134 317.743 34.8788 317.682 34.962C317.621 35.0452 317.591 35.1397 317.591 35.2456C317.591 35.3342 317.612 35.4103 317.654 35.4741C317.698 35.5368 317.753 35.5892 317.82 35.6313C317.887 35.6723 317.957 35.7064 318.03 35.7334C318.104 35.7593 318.171 35.7804 318.233 35.7966L318.57 35.8874C318.656 35.91 318.753 35.9414 318.858 35.9813C318.965 36.0213 319.067 36.0759 319.165 36.145C319.263 36.2131 319.344 36.3006 319.408 36.4076C319.472 36.5145 319.503 36.6458 319.503 36.8014C319.503 36.9807 319.456 37.1428 319.362 37.2876C319.27 37.4323 319.133 37.5474 318.954 37.6328C318.776 37.7181 318.559 37.7608 318.304 37.7608C318.066 37.7608 317.861 37.7224 317.687 37.6457C317.514 37.569 317.378 37.4621 317.278 37.3248C317.18 37.1876 317.124 37.0283 317.111 36.8468H317.526C317.537 36.9721 317.579 37.0758 317.653 37.1579C317.727 37.239 317.821 37.2995 317.935 37.3394C318.049 37.3783 318.172 37.3978 318.304 37.3978C318.458 37.3978 318.595 37.3729 318.717 37.3232C318.84 37.2724 318.936 37.2022 319.008 37.1125C319.079 37.0218 319.114 36.9159 319.114 36.7949C319.114 36.6847 319.084 36.595 319.022 36.5259C318.961 36.4567 318.879 36.4006 318.779 36.3573C318.679 36.3141 318.57 36.2763 318.453 36.2439L318.045 36.1272C317.786 36.0527 317.58 35.9462 317.429 35.8079C317.278 35.6696 317.202 35.4887 317.202 35.265C317.202 35.0792 317.252 34.9171 317.353 34.7788C317.454 34.6395 317.591 34.5314 317.761 34.4547C317.933 34.3769 318.125 34.338 318.337 34.338C318.55 34.338 318.741 34.3764 318.907 34.4531C319.073 34.5287 319.205 34.6324 319.302 34.7643C319.401 34.8961 319.453 35.0457 319.458 35.2132H319.069Z" fill="#58CAEA"/>
<path d="M296.991 48.6959C299.409 48.6959 301.37 46.7343 301.37 44.3145C301.37 41.8947 299.409 39.933 296.991 39.933C294.572 39.933 292.612 41.8947 292.612 44.3145C292.612 46.7343 294.572 48.6959 296.991 48.6959Z" fill="url(#paint9_linear_9_1047)"/>
<path d="M296.991 47.8937C298.967 47.8937 300.568 46.2912 300.568 44.3145C300.568 42.3377 298.967 40.7352 296.991 40.7352C295.015 40.7352 293.414 42.3377 293.414 44.3145C293.414 46.2912 295.015 47.8937 296.991 47.8937Z" stroke="url(#paint10_linear_9_1047)" stroke-width="0.28523" stroke-miterlimit="10"/>
<path d="M296.872 41.5135V37.3647H297.138V41.5135H296.872ZM297.767 38.6094C297.748 38.4451 297.669 38.3176 297.53 38.2269C297.392 38.1361 297.222 38.0908 297.022 38.0908C296.875 38.0908 296.746 38.1145 296.636 38.1621C296.527 38.2096 296.441 38.275 296.38 38.3582C296.319 38.4413 296.289 38.5359 296.289 38.6418C296.289 38.7304 296.31 38.8065 296.352 38.8703C296.395 38.9329 296.451 38.9853 296.518 39.0275C296.584 39.0685 296.655 39.1026 296.728 39.1296C296.802 39.1555 296.869 39.1766 296.931 39.1928L297.268 39.2835C297.354 39.3062 297.45 39.3376 297.556 39.3775C297.663 39.4175 297.765 39.4721 297.863 39.5412C297.961 39.6093 298.042 39.6968 298.106 39.8038C298.169 39.9107 298.201 40.042 298.201 40.1976C298.201 40.3769 298.154 40.539 298.06 40.6838C297.967 40.8285 297.831 40.9436 297.652 41.0289C297.474 41.1143 297.257 41.157 297.002 41.157C296.764 41.157 296.559 41.1186 296.385 41.0419C296.212 40.9652 296.076 40.8582 295.976 40.721C295.878 40.5838 295.822 40.4245 295.809 40.2429H296.224C296.235 40.3683 296.277 40.472 296.351 40.5541C296.425 40.6351 296.519 40.6956 296.633 40.7356C296.747 40.7745 296.87 40.794 297.002 40.794C297.155 40.794 297.293 40.7691 297.415 40.7194C297.537 40.6686 297.634 40.5984 297.705 40.5087C297.777 40.418 297.812 40.3121 297.812 40.1911C297.812 40.0809 297.782 39.9912 297.72 39.9221C297.658 39.8529 297.577 39.7967 297.477 39.7535C297.376 39.7103 297.268 39.6725 297.151 39.6401L296.743 39.5234C296.483 39.4488 296.278 39.3424 296.127 39.2041C295.976 39.0658 295.9 38.8849 295.9 38.6612C295.9 38.4754 295.95 38.3133 296.051 38.175C296.152 38.0357 296.288 37.9276 296.459 37.8509C296.631 37.7731 296.823 37.7342 297.034 37.7342C297.248 37.7342 297.439 37.7726 297.605 37.8493C297.771 37.9249 297.903 38.0286 298 38.1604C298.099 38.2922 298.151 38.4419 298.156 38.6094H297.767Z" fill="#58CAEA"/>
</g>
<defs>
<linearGradient id="paint0_linear_9_1047" x1="401.557" y1="333.068" x2="308.357" y2="333.068" gradientUnits="userSpaceOnUse">
<stop stop-color="#4B45BD"/>
<stop offset="1" stop-color="#7A5BF5"/>
</linearGradient>
<linearGradient id="paint1_linear_9_1047" x1="357.21" y1="176.77" x2="301.625" y2="176.77" gradientUnits="userSpaceOnUse">
<stop offset="0.11" stop-color="#F87B58"/>
<stop offset="0.5" stop-color="#F8C548"/>
<stop offset="1" stop-color="#F89C51"/>
</linearGradient>
<linearGradient id="paint2_linear_9_1047" x1="356.018" y1="229.919" x2="267.813" y2="173.554" gradientUnits="userSpaceOnUse">
<stop stop-color="#4B45BD"/>
<stop offset="1" stop-color="#58CAEA"/>
</linearGradient>
<linearGradient id="paint3_linear_9_1047" x1="361.066" y1="189.256" x2="307.628" y2="189.256" gradientUnits="userSpaceOnUse">
<stop stop-color="#4B45BD"/>
<stop offset="1" stop-color="#58CAEA"/>
</linearGradient>
<linearGradient id="paint4_linear_9_1047" x1="324.087" y1="107.297" x2="280.998" y2="76.0032" gradientUnits="userSpaceOnUse">
<stop stop-color="#4B45BD"/>
<stop offset="1" stop-color="#58CAEA"/>
</linearGradient>
<linearGradient id="paint5_linear_9_1047" x1="295.968" y1="75.2317" x2="313.66" y2="48.8927" gradientUnits="userSpaceOnUse">
<stop stop-color="#4B45BD"/>
<stop offset="1" stop-color="#58CAEA"/>
</linearGradient>
<linearGradient id="paint6_linear_9_1047" x1="300.078" y1="57.2338" x2="315.902" y2="57.2338" gradientUnits="userSpaceOnUse">
<stop stop-color="#4B45BD"/>
<stop offset="1" stop-color="#58CAEA"/>
</linearGradient>
<linearGradient id="paint7_linear_9_1047" x1="310.905" y1="52.1127" x2="322.551" y2="34.7708" gradientUnits="userSpaceOnUse">
<stop stop-color="#4B45BD"/>
<stop offset="1" stop-color="#58CAEA"/>
</linearGradient>
<linearGradient id="paint8_linear_9_1047" x1="313.524" y1="40.2731" x2="324.153" y2="40.2731" gradientUnits="userSpaceOnUse">
<stop stop-color="#4B45BD"/>
<stop offset="1" stop-color="#58CAEA"/>
</linearGradient>
<linearGradient id="paint9_linear_9_1047" x1="291.284" y1="52.791" x2="299.621" y2="40.3819" gradientUnits="userSpaceOnUse">
<stop stop-color="#4B45BD"/>
<stop offset="1" stop-color="#58CAEA"/>
</linearGradient>
<linearGradient id="paint10_linear_9_1047" x1="293.076" y1="44.3054" x2="300.856" y2="44.3054" gradientUnits="userSpaceOnUse">
<stop stop-color="#4B45BD"/>
<stop offset="1" stop-color="#58CAEA"/>
</linearGradient>
<clipPath id="clip0_9_1047">
<rect width="602" height="425" fill="white" transform="translate(0 0.5)"/>
</clipPath>
</defs>
</svg>
